<svg xmlns="http://www.w3.org/2000/svg" width="1em" height="1em" viewBox="0 0 128 128"><path fill="#fff" d="M100.39 123.79H6.8c-1.55 0-2.8-1.25-2.8-2.8V7.01c0-1.55 1.25-2.8 2.8-2.8h93.59c1.55 0 2.8 1.25 2.8 2.8v113.98c0 1.55-1.25 2.8-2.8 2.8"/><path fill="#6fbff0" d="M99.19 8.21v111.58H8V8.21zm1.2-4H6.8C5.25 4.21 4 5.46 4 7.01v113.98c0 1.55 1.25 2.8 2.8 2.8h93.59c1.55 0 2.8-1.25 2.8-2.8V7.01c0-1.55-1.25-2.8-2.8-2.8"/><path fill="none" stroke="#b0bec5" stroke-linecap="round" stroke-miterlimit="10" stroke-width="3.08" d="M17.34 24.79c2.05-.91 4.4.05 6.64.09c2.51.05 4.95-1.08 7.46-.94c2.47.13 4.74 1.47 7.2 1.68c3.09.25 6.03-1.3 9.1-1.69c4.37-.56 8.85 1.23 13.17.32M17.25 43.26c1.74-.47 3.6-.47 5.34-.02c1.64.43 3.19 1.25 4.88 1.29c2.16.05 4.13-1.19 6.24-1.63c5.04-1.06 10.39 2.44 15.26.78m15.15-.2c2.93-.97 6.09.19 9.17.29c1.46.05 2.91-.15 4.35-.34c1.83-.24 3.67-.49 5.5-.73M17.41 58.48c2.25-.39 4.57-.79 6.8-.3c1.27.28 2.49.84 3.79.86c1.47.02 2.85-.64 4.28-.98a9.9 9.9 0 0 1 5.82.39m14.15.59s1.86-1.58 6.77-.54c2.55.54 5.22 1.04 7.77.47c1-.22 1.95-.64 2.95-.85c1.1-.22 2.23-.19 3.35-.16c1.82.06 3.65.11 5.47.17m-61.7 16.39c3.06-2.02 7.19.29 10.79-.42c1.65-.33 3.13-1.29 4.78-1.59c2.03-.37 4.08.29 6.13.54c1.27.16 2.55.15 3.83.15c1.33 0 2.67 0 4-.01c4.51-.01 9.05-.02 13.46-.94M16.2 88.99c2.29-.88 4.72-1.74 7.14-1.36c2.32.37 4.48 1.86 6.81 1.56c.94-.12 1.82-.54 2.71-.87c1.99-.75 4.11-1.12 6.23-1.08m27.39 2.1c1.28-1.45 3.48-1.59 5.39-1.3s3.83.9 5.73.55c1.18-.21 2.26-.79 3.44-.99c2.5-.43 5.23.81 7.54-.26M16.26 108.7c1.47-1.49 3.91-1.37 5.93-.8s4.02 1.5 6.1 1.28c1.81-.19 3.44-1.24 5.25-1.46c1.96-.25 3.89.49 5.81.96c2.65.66 5.41.82 8.12.49"/><path fill="#6fbff0" d="M103.32 50.61L57.43 89.39l-.04.03c-1.07.91-10.09 18.43-10.09 18.43c-.76 1.84.94 3.76 2.91 3.3c0 0 23.73-7.21 24.39-7.73l28.59-23.68z" opacity="0.3"/><path fill="#ffecb3" d="m45.62 107.74l2.49-13.17l1.71-9.07c.34-2.32.32-3.26 1.33-4.69l7.33-10.4L80.89 86.2l-7.34 10.41c-.6.86-1.89 1.72-3.96 2.82l-7.96 4.66l-11.57 6.78c-2.2 1.16-4.8-.67-4.44-3.13"/><path fill="none" d="m72.73 93.79l.02-.03zM54.11 80.61l-.13.18c.04-.06.07-.14.11-.2z"/><path fill="#616161" d="m50.06 110.87l9.58-5.62s-4.27.5-7.63-1.87s-4.33-6.56-4.33-6.56l-2.07 10.91c-.35 2.47 2.25 4.3 4.45 3.14"/><path fill="#ffc107" d="m103.19 40.45l-9.13-6.43l-37.35 53.01s-.26 4 2.5 5.94s6.63.49 6.63.49z"/><path fill="#ffa000" d="M109.83 45.13L73.49 96.69c-6.83 2.78-7.57-3.35-7.57-3.35l37.27-52.89z"/><path fill="#fdd835" d="M94.06 34.01L56.79 86.9s-8.12 1.41-5.6-6.15l36.23-51.42z"/><path fill="#4e342e" d="M87.42 29.34s5.16 5.36 9.15 8.2c7.64 5.43 13.26 7.59 13.26 7.59l-1.08 1.54c-2-.4-7.15-1.76-12.75-5.7c-5.63-3.97-8.71-8.26-9.78-9.93z" opacity="0.2"/><path fill="#f19534" d="m56.86 88.53l-.15-1.5l-1.29-.02l37.81-53.58l1.67 1.18z"/><path fill="#d1762c" d="m65.84 93.46l-1.53.39l37.1-52.65l1.68 1.18l-36.81 52.24z"/><path fill="#ef5350" d="m93.01 21.41l6.56 13.77l15.84 2.02l7.55-10.49c1.94-2.75 1.71-7.07-5.57-12.2L113 11.42c-6.29-4.44-10.51-3.24-12.45-.5z"/><path fill="#94d1e0" d="M112.22 44.5c-.35.49-.91.79-1.51.79c0 0-6.47-.81-13.63-5.86c-7.17-5.05-10.21-10.65-10.21-10.65c-.2-.57-.11-1.2.24-1.69l5.32-7.55c.22-.32.57-.52.96-.55c.13-.01.26-.01.4-.02c.52-.01.99.29 1.22.76c0 0 3.93 5.19 9.61 9.19s12.09 5.79 12.09 5.79c.52.05.97.38 1.13.88v.01c.13.39.07.82-.17 1.16z"/><ellipse cx="113.92" cy="15.66" fill="#ff8383" rx="3.39" ry="11.44" transform="rotate(-54.829 113.926 15.662)"/><path fill="#b9e4ea" d="M94.12 25.19c3.28 4.3 8.02 7.47 13.24 8.88c.34.09 1.01.11 1.15-.22c.1-.25 0-.83-.72-1.14c-2.6-1.12-5.6-3.04-9.57-6.62s-5.09-5.97-5.71-5.33c-.52.54.98 3.61 1.61 4.43m4.92 7.35c1.04.6-.25 2.28-3.85.43c-2.57-1.32-4.83-3.58-5.5-6.39c-.08-.33-.13-1.14.2-1.43c1.05-.92 1.38.79 3.53 3.03c1.66 1.74 3.52 3.16 5.62 4.36"/></svg>