<svg xmlns="http://www.w3.org/2000/svg" width="1em" height="1em" viewBox="0 0 128 128"><path fill="#bf8400" d="m26.87 62.99l5.68-19.87L80.18 99.3l-15.51 1.5z"/><path fill="#eaa700" d="M4 5.86V124h118.14c.69 0 1.03-.83.54-1.32L5.32 5.32C4.83 4.83 4 5.17 4 5.86M28.62 60.1l41.37 40.7H28.62z"/><path fill="#bf8400" d="M26.87 101.81L4 124h118.14c.69 0 1.03-.83.54-1.32l-5.3-5.3z"/><linearGradient id="notoTriangularRuler0" x1="30.678" x2="81.288" y1="97.322" y2="46.712" gradientUnits="userSpaceOnUse"><stop offset=".546" stop-color="#fdd835"/><stop offset=".776" stop-color="#f9a825"/></linearGradient><path fill="url(#notoTriangularRuler0)" d="M7.12 8.81v111.36c0 .39.31.7.7.7h111.36c.62 0 .94-.76.5-1.2L8.32 8.32c-.44-.44-1.2-.13-1.2.49m21.77 52.5l37.8 37.8h-37.8z"/><path fill="#795548" d="M10.05 19.82c-.5.5-.5 1.32 0 1.82l1.01 1.01c.5.5 1.32.5 1.82 0l4.89-4.89l-2.83-2.83z"/><linearGradient id="notoTriangularRuler1" x1="51.754" x2="53.311" y1="109.918" y2="108.36" gradientTransform="translate(-37.775 -91.197)" gradientUnits="userSpaceOnUse"><stop offset="0" stop-color="#5d4037" stop-opacity="0"/><stop offset="1" stop-color="#5d4037"/></linearGradient><path fill="url(#notoTriangularRuler1)" d="m14.94 14.94l-2.35 2.35l2.82 2.82l2.35-2.35z"/><path fill="#795548" d="M28.85 38.62c-.5.5-.5 1.32 0 1.82l1.01 1.01c.5.5 1.32.5 1.82 0l4.89-4.89l-2.83-2.83z"/><linearGradient id="notoTriangularRuler2" x1="70.553" x2="72.111" y1="128.717" y2="127.16" gradientTransform="translate(-37.775 -91.197)" gradientUnits="userSpaceOnUse"><stop offset="0" stop-color="#5d4037" stop-opacity="0"/><stop offset="1" stop-color="#5d4037"/></linearGradient><path fill="url(#notoTriangularRuler2)" d="m33.74 33.73l-2.35 2.35l2.82 2.83l2.35-2.35z"/><path fill="#795548" d="M47.65 57.42c-.5.5-.5 1.32 0 1.82l1.01 1.01c.5.5 1.32.5 1.82 0l4.89-4.89l-2.83-2.83z"/><linearGradient id="notoTriangularRuler3" x1="89.353" x2="90.91" y1="147.517" y2="145.959" gradientTransform="translate(-37.775 -91.197)" gradientUnits="userSpaceOnUse"><stop offset="0" stop-color="#5d4037" stop-opacity="0"/><stop offset="1" stop-color="#5d4037"/></linearGradient><path fill="url(#notoTriangularRuler3)" d="m52.54 52.53l-2.36 2.35l2.83 2.83l2.35-2.35z"/><path fill="#795548" d="M66.45 76.22c-.5.5-.5 1.32 0 1.82l1.01 1.01c.5.5 1.32.5 1.82 0l4.89-4.89l-2.83-2.83z"/><linearGradient id="notoTriangularRuler4" x1="108.152" x2="109.709" y1="166.316" y2="164.758" gradientTransform="translate(-37.775 -91.197)" gradientUnits="userSpaceOnUse"><stop offset="0" stop-color="#5d4037" stop-opacity="0"/><stop offset="1" stop-color="#5d4037"/></linearGradient><path fill="url(#notoTriangularRuler4)" d="m71.33 71.33l-2.35 2.35l2.83 2.83l2.35-2.35z"/><path fill="#795548" d="M85.25 95.02c-.5.5-.5 1.32 0 1.82l1.01 1.01c.5.5 1.32.5 1.82 0l4.89-4.89l-2.83-2.83z"/><linearGradient id="notoTriangularRuler5" x1="126.951" x2="128.509" y1="185.115" y2="183.558" gradientTransform="translate(-37.775 -91.197)" gradientUnits="userSpaceOnUse"><stop offset="0" stop-color="#5d4037" stop-opacity="0"/><stop offset="1" stop-color="#5d4037"/></linearGradient><path fill="url(#notoTriangularRuler5)" d="m90.13 90.13l-2.35 2.35l2.83 2.83l2.35-2.35z"/><path fill="#795548" d="M104.05 113.82c-.5.5-.5 1.32 0 1.82l1.01 1.01c.5.5 1.32.5 1.82 0l4.89-4.89l-2.83-2.83z"/><linearGradient id="notoTriangularRuler6" x1="145.751" x2="147.308" y1="203.915" y2="202.357" gradientTransform="translate(-37.775 -91.197)" gradientUnits="userSpaceOnUse"><stop offset="0" stop-color="#5d4037" stop-opacity="0"/><stop offset="1" stop-color="#5d4037"/></linearGradient><path fill="url(#notoTriangularRuler6)" d="m108.93 108.93l-2.35 2.35l2.83 2.83l2.35-2.35z"/><path fill="#795548" d="M34.04 51.49c-.5.5-.5 1.32 0 1.82l1.75 1.75c.5.5 1.32.5 1.82 0l8.23-8.23l-3.57-3.57z"/><linearGradient id="notoTriangularRuler7" x1="80.15" x2="81.425" y1="137.919" y2="136.644" gradientTransform="translate(-37.775 -91.197)" gradientUnits="userSpaceOnUse"><stop offset="0" stop-color="#5d4037" stop-opacity="0"/><stop offset="1" stop-color="#5d4037"/></linearGradient><path fill="url(#notoTriangularRuler7)" d="m42.77 42.76l-2.36 2.35l3.57 3.57l2.35-2.35z"/><path fill="#795548" d="M52.84 70.29c-.5.5-.5 1.32 0 1.82l1.75 1.75c.5.5 1.32.5 1.82 0l8.23-8.23l-3.57-3.57z"/><linearGradient id="notoTriangularRuler8" x1="98.949" x2="100.225" y1="156.718" y2="155.443" gradientTransform="translate(-37.775 -91.197)" gradientUnits="userSpaceOnUse"><stop offset="0" stop-color="#5d4037" stop-opacity="0"/><stop offset="1" stop-color="#5d4037"/></linearGradient><path fill="url(#notoTriangularRuler8)" d="m61.56 61.56l-2.35 2.35l3.57 3.57l2.35-2.35z"/><path fill="#795548" d="M15.24 32.69c-.5.5-.5 1.32 0 1.82l1.75 1.75c.5.5 1.32.5 1.82 0l8.23-8.23l-3.57-3.57z"/><linearGradient id="notoTriangularRuler9" x1="61.35" x2="62.626" y1="119.12" y2="117.844" gradientTransform="translate(-37.775 -91.197)" gradientUnits="userSpaceOnUse"><stop offset="0" stop-color="#5d4037" stop-opacity="0"/><stop offset="1" stop-color="#5d4037"/></linearGradient><path fill="url(#notoTriangularRuler9)" d="m23.97 23.96l-2.35 2.35l3.56 3.57l2.35-2.35z"/><path fill="#795548" d="M71.64 89.09c-.5.5-.5 1.32 0 1.82l1.75 1.75c.5.5 1.32.5 1.82 0l8.23-8.23l-3.57-3.57z"/><linearGradient id="notoTriangularRulera" x1="117.749" x2="119.024" y1="175.518" y2="174.242" gradientTransform="translate(-37.775 -91.197)" gradientUnits="userSpaceOnUse"><stop offset="0" stop-color="#5d4037" stop-opacity="0"/><stop offset="1" stop-color="#5d4037"/></linearGradient><path fill="url(#notoTriangularRulera)" d="m80.36 80.36l-2.35 2.35l3.57 3.57l2.35-2.35z"/><path fill="#795548" d="M90.44 107.89c-.5.5-.5 1.32 0 1.82l1.75 1.75c.5.5 1.32.5 1.82 0l8.23-8.23l-3.57-3.57z"/><linearGradient id="notoTriangularRulerb" x1="136.548" x2="137.823" y1="194.317" y2="193.042" gradientTransform="translate(-37.775 -91.197)" gradientUnits="userSpaceOnUse"><stop offset="0" stop-color="#5d4037" stop-opacity="0"/><stop offset="1" stop-color="#5d4037"/></linearGradient><path fill="url(#notoTriangularRulerb)" d="m99.16 99.16l-2.35 2.35l3.57 3.57l2.35-2.35z"/></svg>