<?xml version="1.0" standalone="no"?>
<!DOCTYPE svg PUBLIC "-//W3C//DTD SVG 20010904//EN"
 "http://www.w3.org/TR/2001/REC-SVG-20010904/DTD/svg10.dtd">
<svg version="1.0" xmlns="http://www.w3.org/2000/svg"
 width="2056.000000pt" height="2056.000000pt" viewBox="0 0 2056.000000 2056.000000"
 preserveAspectRatio="xMidYMid meet">
<metadata>
Created by potrace 1.14, written by Peter Selinger 2001-2017
</metadata>
<g transform="translate(0.000000,2056.000000) scale(0.100000,-0.100000)"
fill="#000000" stroke="none">
<path d="M839 13636 c-2 -2 -26 -6 -54 -10 -62 -7 -147 -22 -152 -26 -3 -3 -3
-3 -53 -14 -19 -5 -46 -14 -60 -21 -14 -7 -40 -19 -59 -26 -87 -33 -241 -160
-286 -236 -11 -18 -23 -33 -27 -33 -4 0 -8 -6 -8 -14 0 -8 -3 -16 -7 -18 -20
-9 -96 -193 -107 -260 -3 -18 -9 -44 -12 -58 -19 -74 -10 -367 13 -430 3 -8 7
-22 8 -30 13 -100 112 -278 209 -374 43 -42 174 -136 190 -136 4 0 25 -9 49
-19 52 -24 122 -47 162 -54 17 -3 37 -7 45 -10 31 -11 292 -32 355 -28 138 8
215 19 325 46 8 2 15 4 15 5 0 1 7 3 15 5 75 16 227 95 291 152 54 48 89 83
89 89 0 2 11 16 24 31 38 41 103 162 130 243 77 233 64 511 -33 720 -25 54
-32 66 -93 150 -47 66 -150 170 -168 170 -6 0 -10 4 -10 8 0 12 -118 78 -190
105 -94 35 -135 46 -235 63 -35 6 -361 15 -366 10z"/>
<path d="M18737 13243 c-4 -3 -31 -5 -60 -4 l-54 1 3 -362 c6 -670 14 -1333
17 -1358 2 -14 1 -29 -1 -34 -7 -13 -6 -92 2 -104 3 -6 2 -13 -4 -17 -6 -4 -7
-11 -4 -17 10 -15 11 -139 1 -145 -4 -2 -4 -10 0 -16 10 -16 10 -2107 0 -2107
-4 0 -3 -9 3 -20 8 -14 8 -20 0 -20 -6 0 -8 -5 -4 -12 6 -9 10 -113 4 -113 0
0 -3 -263 -6 -585 -2 -322 -6 -750 -8 -953 -2 -202 0 -369 4 -372 5 -3 145 -6
220 -4 8 0 100 0 204 -1 103 -1 190 1 193 4 2 2 17 1 31 -3 15 -4 39 -4 54 0
16 4 30 3 33 -1 3 -5 16 -6 28 -1 12 4 33 5 47 1 14 -4 37 -3 52 1 15 4 30 4
33 -1 3 -5 16 -6 28 -1 12 4 33 5 47 1 14 -4 37 -3 52 1 15 4 30 4 33 -1 3 -5
16 -6 28 -1 12 4 33 5 47 1 14 -4 37 -3 52 1 14 4 28 5 30 3 3 -3 81 -5 128
-3 26 1 474 0 507 -1 l32 -1 -6 373 c-3 205 -6 837 -5 1403 0 1540 0 1652 0
2535 -1 448 2 1066 5 1373 l7 557 -33 1 c-17 1 -36 0 -42 -1 -5 -1 -50 -1
-100 -1 -49 0 -209 0 -355 0 -146 -1 -271 0 -277 0 -29 2 -44 2 -183 2 -80 0
-154 0 -165 0 -11 0 -150 0 -309 0 -159 0 -292 1 -296 4 -4 2 -10 2 -13 -2z"/>
<path d="M5487 13215 c-5 -17 6 -609 18 -975 3 -80 8 -228 10 -330 3 -102 8
-257 10 -345 13 -445 15 -554 20 -850 l6 -320 -69 135 c-152 300 -328 493
-592 651 -69 41 -105 60 -215 109 -95 43 -335 112 -432 125 -21 2 -49 7 -63 9
-134 27 -498 26 -646 0 -162 -29 -374 -109 -514 -195 -193 -119 -390 -298
-520 -474 -25 -33 -47 -62 -50 -65 -29 -26 -171 -279 -223 -396 -45 -103 -60
-139 -63 -149 -2 -5 -16 -47 -32 -92 -25 -69 -77 -251 -87 -302 -1 -9 -6 -36
-11 -61 -4 -25 -8 -47 -9 -50 -1 -5 -14 -87 -22 -140 -30 -209 -22 -632 17
-839 4 -25 6 -49 4 -53 -3 -5 0 -8 6 -8 6 0 9 -4 6 -8 -5 -8 4 -55 24 -132 22
-81 52 -186 57 -200 3 -8 7 -19 9 -25 21 -70 97 -245 150 -344 46 -85 111
-192 123 -201 4 -3 21 -28 39 -57 19 -28 36 -53 40 -55 4 -2 24 -24 44 -49 78
-97 245 -250 344 -316 11 -7 37 -25 59 -39 34 -23 88 -55 145 -85 8 -5 38 -18
65 -30 28 -11 63 -27 79 -35 16 -8 35 -14 43 -14 7 0 21 -4 31 -9 17 -9 93
-32 122 -37 8 -1 26 -5 40 -9 14 -3 39 -8 55 -10 17 -3 59 -9 95 -14 36 -5
155 -7 265 -5 195 4 225 6 293 18 17 3 47 8 65 11 17 3 46 8 62 11 46 8 204
51 265 72 83 30 278 118 290 131 6 8 41 29 60 38 8 4 20 11 25 15 182 142 211
169 305 280 75 90 107 134 165 230 17 28 90 172 90 178 0 3 6 14 12 25 10 16
11 -16 8 -150 -14 -548 -17 -675 -19 -723 -1 -29 1 -55 4 -57 6 -3 317 -5 560
-4 8 0 100 0 204 -1 103 -1 190 1 193 4 2 2 17 1 31 -3 15 -4 39 -4 54 0 16 4
30 3 33 -1 3 -5 16 -6 28 -1 12 4 33 5 47 1 14 -4 37 -3 52 1 15 4 30 4 33 -1
3 -5 16 -6 28 -1 12 4 33 5 47 1 14 -4 37 -3 52 1 15 4 30 4 33 -1 3 -5 16 -6
28 -1 12 4 33 5 47 1 14 -4 37 -3 52 1 14 4 28 5 30 3 3 -3 60 -4 131 -4 9 1
34 1 55 1 20 0 45 0 54 0 9 0 15 6 12 12 -2 7 -6 109 -8 227 -3 118 -5 215 -6
215 -1 0 -7 233 -15 620 -27 1328 -23 3445 10 4475 3 96 6 181 5 188 0 6 0 18
0 25 -2 47 12 434 15 445 2 6 -3 13 -13 13 -9 1 -416 2 -904 3 -584 1 -889 -2
-891 -9z m-702 -3214 c0 -2 16 -4 36 -6 52 -4 168 -32 214 -50 82 -34 135 -59
135 -64 0 -4 12 -12 28 -18 76 -34 185 -150 236 -250 96 -189 118 -482 56
-747 -24 -103 -60 -195 -87 -224 -7 -7 -13 -19 -13 -25 0 -7 -11 -24 -25 -39
-14 -15 -25 -29 -25 -32 0 -11 -94 -93 -148 -129 -32 -20 -63 -42 -69 -47 -7
-6 -13 -8 -13 -5 0 3 -22 -6 -50 -20 -27 -14 -51 -24 -52 -24 -2 1 -25 -5 -53
-14 -27 -9 -64 -18 -80 -20 -17 -2 -35 -6 -40 -8 -24 -13 -267 -17 -335 -6
-87 14 -122 23 -175 44 -71 27 -89 37 -149 77 -180 119 -306 321 -351 561 -21
114 -24 311 -6 395 6 30 13 64 16 75 8 38 41 122 58 148 9 14 17 30 17 35 0
22 170 212 190 212 5 0 10 4 12 8 10 24 214 134 253 137 6 0 15 3 20 7 6 3 28
9 50 12 22 4 53 10 68 14 25 6 282 9 282 3z"/>
<path d="M9826 11442 c-2 -2 -37 -5 -78 -7 -110 -6 -168 -12 -328 -36 -41 -6
-86 -12 -100 -14 -14 -2 -70 -13 -125 -25 -124 -27 -129 -28 -132 -30 -2 -2
-7 -4 -13 -5 -5 -1 -13 -4 -17 -5 -5 -1 -12 -2 -17 -1 -4 1 -14 -3 -21 -9 -7
-6 -17 -10 -21 -8 -11 3 -121 -34 -221 -73 -180 -71 -359 -170 -498 -276 -93
-72 -212 -185 -290 -277 -22 -26 -45 -53 -51 -60 -11 -12 -143 -205 -171 -251
-7 -11 -20 -37 -29 -57 -9 -21 -20 -38 -25 -38 -5 0 -9 -8 -9 -18 0 -10 -4
-22 -9 -27 -38 -43 -148 -387 -175 -550 -3 -16 -7 -41 -10 -55 -31 -159 -38
-622 -11 -762 3 -12 8 -50 11 -83 4 -33 9 -64 11 -68 3 -5 7 -23 9 -40 2 -18
10 -59 19 -92 8 -33 17 -69 20 -80 24 -101 104 -307 164 -419 75 -138 85 -157
101 -174 9 -9 17 -20 18 -25 3 -13 109 -153 154 -203 71 -80 160 -167 213
-209 28 -22 52 -42 55 -45 8 -9 140 -100 145 -100 2 0 20 -11 41 -25 58 -39
265 -137 359 -170 28 -9 59 -21 70 -26 18 -7 175 -55 215 -64 49 -13 200 -45
230 -49 19 -3 46 -8 59 -10 25 -6 72 -12 161 -21 30 -3 69 -8 87 -11 165 -25
906 -25 1040 0 11 2 53 7 94 11 41 3 85 8 99 10 52 7 106 16 130 21 14 2 39 7
55 10 25 4 97 20 225 49 8 1 35 9 60 16 25 7 50 14 55 15 6 0 17 4 25 7 8 3
40 13 70 22 53 17 122 43 185 70 17 8 33 14 38 14 13 1 232 115 235 123 2 5 8
8 13 8 23 0 255 161 337 234 67 59 190 188 226 236 22 30 43 57 46 60 3 3 20
28 38 55 17 28 35 55 40 60 7 9 35 61 60 112 5 10 14 28 20 40 14 27 12 28
-103 67 -44 15 -89 31 -100 36 -11 5 -65 25 -120 44 -344 120 -718 272 -993
403 l-93 44 -27 -33 c-94 -111 -223 -220 -342 -288 -75 -43 -217 -103 -273
-114 -7 -2 -19 -6 -27 -9 -42 -15 -148 -35 -280 -52 -49 -6 -267 -6 -315 0
-62 8 -140 19 -145 20 -3 1 -23 5 -45 10 -49 11 -46 10 -67 18 -44 17 -54 20
-67 23 -14 3 -120 55 -156 77 -17 10 -48 34 -100 76 -10 8 -76 83 -120 136
-14 17 -25 35 -25 42 0 6 -4 13 -8 15 -12 5 -92 167 -92 187 0 10 -3 21 -7 25
-5 4 -8 11 -9 14 0 4 -5 25 -11 47 -28 101 -30 94 34 95 53 0 195 0 226 -1 14
0 132 0 162 1 11 0 38 0 60 -1 22 0 47 0 55 0 8 0 62 0 120 0 58 0 110 0 115
0 6 0 51 0 100 1 50 0 434 1 855 1 421 0 772 1 780 1 24 0 103 -2 135 -3 17
-1 37 -1 45 0 89 3 272 1 279 -4 5 -3 12 -1 15 4 3 4 23 5 44 1 21 -3 47 -3
58 0 10 4 22 6 25 4 7 -4 39 -5 199 -5 119 0 133 0 163 2 6 0 31 0 55 -2 23
-1 44 0 46 2 19 18 27 387 13 529 -7 67 -18 143 -22 160 -3 8 -7 33 -11 55 -3
22 -10 48 -15 58 -5 9 -8 17 -5 17 3 0 -4 32 -15 71 -71 256 -229 542 -414
747 -91 101 -189 193 -257 242 -27 18 -48 37 -48 42 0 4 -4 8 -10 8 -5 0 -31
15 -57 34 -163 116 -407 236 -640 316 -32 10 -70 21 -85 24 -15 3 -32 7 -38
11 -5 3 -18 8 -27 10 -10 3 -38 9 -63 16 -63 15 -82 19 -110 25 -14 2 -50 10
-80 16 -30 6 -64 12 -75 13 -40 6 -111 16 -135 20 -42 7 -132 17 -195 22 -81
5 -634 10 -639 5z m594 -1216 c75 -12 87 -14 148 -35 103 -34 193 -83 275
-151 33 -27 109 -100 104 -100 -3 0 7 -13 22 -28 29 -32 101 -149 101 -166 0
-6 7 -20 15 -30 8 -11 15 -25 15 -32 0 -9 -225 -11 -940 -12 -517 0 -940 1
-940 3 0 25 93 186 112 193 4 2 8 9 8 15 0 18 129 134 199 180 139 90 280 138
476 163 28 4 52 8 53 9 6 5 313 -3 352 -9z"/>
<path d="M15397 11444 c-1 -1 -43 -5 -92 -9 -86 -5 -152 -12 -205 -20 -14 -3
-47 -7 -75 -10 -27 -3 -57 -8 -65 -10 -8 -2 -31 -7 -50 -10 -212 -35 -516
-133 -710 -229 -174 -85 -411 -228 -487 -293 -12 -10 -34 -27 -49 -38 -144
-104 -393 -344 -539 -519 -22 -26 -48 -58 -58 -69 -18 -21 -18 -22 10 -44 15
-13 32 -23 36 -23 5 0 22 -9 38 -21 16 -11 29 -17 29 -14 0 3 12 -2 28 -13 15
-10 52 -32 82 -48 30 -16 57 -32 58 -36 2 -5 8 -8 12 -8 5 0 63 -33 130 -72
67 -40 136 -81 153 -92 18 -10 34 -22 35 -27 2 -5 9 -9 14 -9 14 0 202 -120
206 -132 2 -4 8 -8 14 -8 5 0 60 -34 121 -77 62 -42 136 -92 164 -112 56 -38
64 -51 36 -52 -48 -2 -218 -38 -356 -75 -518 -139 -830 -376 -957 -729 -12
-33 -23 -67 -25 -75 -2 -8 -8 -35 -13 -60 -6 -25 -14 -65 -18 -90 -9 -61 -12
-325 -3 -375 4 -22 13 -74 19 -115 24 -146 90 -311 173 -435 51 -76 184 -208
261 -259 162 -107 408 -201 604 -231 15 -3 59 -9 97 -15 98 -16 138 -19 323
-25 90 -3 168 -7 173 -10 5 -4 9 -3 9 2 0 4 33 8 73 9 68 0 189 11 232 19 11
3 38 7 60 10 85 12 274 63 350 94 253 104 457 247 620 432 50 56 155 197 155
208 0 5 3 11 8 13 9 4 92 143 92 155 0 5 6 15 13 22 6 6 12 15 13 19 0 4 18
43 38 87 21 44 47 105 58 135 11 30 24 59 29 64 5 6 10 -53 10 -140 1 -82 3
-165 5 -184 2 -19 4 -42 5 -50 2 -35 31 -188 42 -220 6 -19 12 -37 12 -40 11
-59 83 -215 137 -295 40 -59 90 -111 143 -150 26 -19 142 -86 148 -84 1 0 16
-5 32 -11 127 -50 392 -94 543 -90 6 0 20 0 30 0 9 1 38 0 65 0 26 -1 52 2 57
5 6 3 10 1 10 -5 0 -6 5 -8 10 -5 6 4 79 8 163 10 173 4 278 12 407 31 19 2
58 7 85 9 28 3 61 7 75 10 13 2 42 7 65 11 22 3 41 7 42 8 1 1 5 62 8 136 28
635 28 620 10 621 -28 3 -57 13 -120 46 -89 46 -137 114 -161 224 -2 13 -7 38
-11 54 -3 17 -7 255 -9 530 -3 555 -11 959 -18 991 -2 12 -7 45 -11 75 -35
308 -155 667 -286 861 -22 31 -39 59 -39 62 0 22 -205 244 -283 308 -12 10
-29 24 -37 31 -66 62 -324 212 -439 256 -25 10 -55 21 -66 26 -11 4 -24 9 -30
11 -5 2 -37 13 -70 24 -65 23 -242 70 -290 77 -16 2 -46 8 -65 13 -19 5 -53
11 -75 15 -23 3 -52 8 -65 10 -14 3 -49 7 -78 10 -29 2 -72 7 -95 10 -23 3
-67 8 -97 11 -59 5 -618 13 -623 8z m469 -1409 c93 -4 102 -6 174 -25 47 -12
132 -57 167 -87 66 -59 69 -169 5 -238 -29 -32 -87 -76 -105 -80 -7 -1 -19 -5
-27 -8 -88 -35 -165 -41 -725 -52 -159 -3 -319 -8 -355 -10 -36 -2 -103 -7
-150 -10 -151 -10 -302 -25 -313 -32 -5 -3 -4 3 1 13 10 19 149 154 158 154 3
0 17 12 32 26 15 14 52 42 82 62 30 20 57 39 60 43 9 11 195 106 245 124 28
10 56 23 63 28 6 5 12 7 12 4 0 -3 16 1 35 9 19 8 38 15 42 15 5 1 13 3 18 4
127 35 288 58 417 59 32 1 58 5 58 9 0 5 4 6 9 3 5 -3 49 -8 97 -11z m404
-1043 c0 -98 -4 -114 -50 -191 -75 -125 -272 -286 -452 -370 -80 -37 -240 -95
-289 -105 -13 -2 -55 -11 -94 -19 -243 -52 -516 -56 -667 -11 -32 9 -58 21
-58 26 0 4 -6 8 -13 8 -12 0 -39 22 -62 52 -32 42 -42 100 -28 168 9 48 97
132 176 169 37 17 72 31 80 31 7 0 17 3 21 7 3 4 12 8 19 9 7 1 30 6 52 12 42
12 79 20 130 28 17 3 41 7 55 10 14 3 41 7 60 10 19 2 58 8 85 14 46 8 87 14
170 25 17 3 41 7 55 10 14 3 39 8 55 10 17 2 46 6 65 10 19 3 46 8 60 10 14 2
50 9 80 15 30 5 67 12 82 14 61 11 243 65 303 91 17 7 41 16 54 20 14 4 39 16
55 26 54 31 56 28 56 -79z"/>
<path d="M59 11357 c-1 -7 -1 -15 -1 -18 2 -10 14 -283 17 -384 2 -49 6 -146
9 -215 16 -362 25 -698 31 -1081 2 -169 5 -311 6 -315 1 -5 0 -13 -1 -19 -1
-8 -1 -123 1 -180 1 -28 -12 -871 -16 -995 -4 -175 -15 -482 -21 -640 -2 -63
-6 -180 -9 -260 -3 -80 -7 -167 -9 -193 -1 -26 0 -50 4 -52 5 -3 152 -6 220
-4 11 0 472 1 640 0 8 0 100 0 204 -1 103 -1 190 1 193 4 2 2 17 1 31 -3 15
-4 39 -4 54 0 16 4 30 3 33 -1 3 -5 16 -6 28 -1 12 4 33 5 47 1 14 -4 37 -3
52 1 15 4 30 4 33 -1 3 -5 16 -6 28 -1 12 4 33 5 47 1 14 -4 37 -3 52 1 15 4
30 4 33 -1 3 -5 16 -6 28 -1 12 4 33 5 47 1 14 -4 37 -3 51 1 14 4 38 5 52 2
l25 -5 -4 98 c-18 418 -34 870 -38 1116 -2 97 -7 181 -10 187 -4 6 -3 11 3 11
7 0 7 8 2 23 -5 13 -5 30 -1 37 5 8 6 19 2 25 -10 14 -11 1235 -1 1261 4 11 4
26 -1 33 -4 7 -4 28 0 47 5 19 4 37 -1 40 -5 3 -7 10 -3 15 3 6 8 92 10 192 4
214 17 596 29 852 2 44 7 145 11 225 3 80 7 159 8 175 l1 30 -957 2 c-720 1
-958 -2 -959 -10z"/>
</g>
</svg>
