<svg width="16" height="16" viewBox="0 0 364 364" fill="none" xmlns="http://www.w3.org/2000/svg">
<style>
    path {
        fill: #000;
    }
    @media (prefers-color-scheme: dark) {
        path {
            fill: #edede9;
        }
    }
</style>
<path d="M64.4 158.5c-4.2 0-7.333-1.033-9.4-3.1-2-2.067-3-4.767-3-8.1 0-3.267 1-5.967 3-8.1 2.067-2.133 5.2-3.2 9.4-3.2 4 0 7.067 1.1 9.2 3.3 2.133 2.133 3.2 4.8 3.2 8 0 3.333-1.033 6.033-3.1 8.1-2.067 2.067-5.167 3.1-9.3 3.1ZM52.8 219c.467-10.733.7-19.6.7-26.6 0-8.333-.267-17.667-.8-28h24c-.533 9.933-.8 19.267-.8 28 0 7.333.233 16.2.7 26.6H52.8Zm90.366-77.8c-.4 12.4-.6 25.367-.6 38.9 0 13.4.2 26.367.6 38.9h-22.6l.3-12c-1.934 4.467-4.734 7.767-8.4 9.9-3.667 2.067-8 3.1-13 3.1-4.334 0-8.234-1.233-11.7-3.7-3.467-2.467-6.167-5.8-8.1-10-1.934-4.267-2.9-8.933-2.9-14 0-5 .966-9.7 2.9-14.1 1.933-4.467 4.633-8.033 8.1-10.7 3.533-2.733 7.533-4.1 12-4.1 5.2 0 9.633 1.1 13.3 3.3 3.733 2.133 6.5 5.467 8.3 10 0-3.8-.134-9.9-.4-18.3-.267-8.133-.4-13.867-.4-17.2h22.6Zm-33.2 62c3.266 0 5.933-.9 8-2.7 2.066-1.867 3.1-4.8 3.1-8.8 0-3.533-1.034-6.133-3.1-7.8-2.067-1.667-4.667-2.5-7.8-2.5-3 0-5.534.967-7.6 2.9-2 1.867-3 4.333-3 7.4 0 3.4.933 6.167 2.8 8.3 1.866 2.133 4.4 3.2 7.6 3.2Zm56.537-9.2c.533 2.933 1.833 5.333 3.9 7.2 2.133 1.8 5.133 2.7 9 2.7 2.8 0 5.433-.533 7.9-1.6 2.467-1.133 4.433-2.7 5.9-4.7 4.467 2.2 10.4 4.567 17.8 7.1-2.067 4.667-5.833 8.4-11.3 11.2-5.4 2.733-12.467 4.1-21.2 4.1-11.333 0-19.733-2.6-25.2-7.8-5.4-5.267-8.1-12.167-8.1-20.7 0-8.333 2.7-15.1 8.1-20.3 5.4-5.2 13.8-7.8 25.2-7.8 6.8 0 12.7 1.133 17.7 3.4s8.833 5.433 11.5 9.5c2.667 4 4 8.6 4 13.8 0 1.733-.067 3.033-.2 3.9h-45Zm13.4-15.5c-3.333 0-6.067.633-8.2 1.9-2.133 1.267-3.633 3-4.5 5.2h23.6c-.8-2.133-2.1-3.833-3.9-5.1-1.8-1.333-4.133-2-7-2Zm97.861 23.9c0 2.267.267 3.867.8 4.8.533.933 1.6 1.6 3.2 2l-.4 9.4c-2.133.333-4 .567-5.6.7-1.533.133-3.6.2-6.2.2-5.733 0-9.533-1.267-11.4-3.8-1.867-2.6-2.8-5.9-2.8-9.9v-2.5c-1.933 5.467-4.767 9.533-8.5 12.2-3.667 2.667-8.367 4-14.1 4-6.667 0-11.7-1.333-15.1-4-3.333-2.667-5-6.633-5-11.9 0-4.333 1.433-7.733 4.3-10.2 2.867-2.467 7.3-4.167 13.3-5.1-5.067-3.6-10.133-6.733-15.2-9.4 4-5.067 8.567-8.9 13.7-11.5 5.133-2.667 11.367-4 18.7-4 10.267 0 17.867 2.233 22.8 6.7 5 4.4 7.5 11.2 7.5 20.4v11.9Zm-28.2-21.4c-3.4 0-6.4.567-9 1.7-2.6 1.133-4.933 2.833-7 5.1 4-.467 9-.7 15-.7 2.467 0 4.2-.3 5.2-.9 1-.6 1.5-1.367 1.5-2.3 0-.8-.5-1.467-1.5-2-1-.6-2.4-.9-4.2-.9Zm-10.5 22.2c3.733 0 7.1-.7 10.1-2.1 3-1.467 5.067-3.367 6.2-5.7v-2.6c-1.6.8-3.367 1.433-5.3 1.9-1.933.4-4.267.8-7 1.2l-3.6.6c-3.733.733-5.6 2-5.6 3.8 0 1.933 1.733 2.9 5.2 2.9Zm69.221-24.2c-.067 4-.1 10.133-.1 18.4 0 9.933.067 17.133.2 21.6h-23.6l.1-11.3c.133-12.4.2-21.967.2-28.7 0-6.4-.067-15.467-.2-27.2l-.1-10.8h23.6c-.133 9.467-.2 17.2-.2 23.2 0 6.667.033 11.6.1 14.8Z" fill="#000"/></svg>