<svg xmlns="http://www.w3.org/2000/svg" fill="none" viewBox="0 0 376 457">
  <circle cx="214" cy="162" r="162" fill="#56ADED"/>
  <path fill="#000" fill-rule="evenodd" d="M335.024 431.86c-2.456 1.483-5.334 2.628-8.063 3.396-1.603.451-4.251 1.845-5.659.568-.677-.614-.831-2.007-1.23-2.814-.632-1.278-1.529-2.381-2.369-3.511-2.038-2.737-4.158-5.377-6.377-7.953-1.051-1.22-2.971-4.069-4.823-3.881-2.309.233-2.253 3.604-1.675 5.326 1.842 5.482 7.419 10.261 11.061 14.391-.926 1.504-6.012 1.324-7.424.973-2.157-.537-2.375-2.157-3.359-4.009-2.302-4.329-6.972-6.752-10.811-9.297-1.399-.929-4.373-3.501-6.197-2.853-1.729.613-1.654 2.942-1.103 4.463.831 2.298 3.197 3.892 4.946 5.345 2.333 1.936 4.466 4.043 6.41 6.413-2.802.241-5.594.658-8.389.901-3.38.294-6.197-1.662-9.309-2.771-2.891-1.031-5.772-1.902-8.616-3.089-3.191-1.334-6.535-1.798-9.755-2.968-12.637-4.59-25.019-10.364-37.197-16.183-5.803-2.774-11.486-5.549-17.532-7.719-4.406-1.582-11.33-4.735-12.384-10.271-.556-2.925 1.47-6.07 1.769-8.992.35-3.438.074-7.221-.919-10.52-.875-2.906-2.325-5.597-3.468-8.386-1.332-3.252-.14-3.199 2.447-3.569 3.097-.443 6.71-2.281 9.62-3.479 3.353-1.38 6.677-3.308 9.747-5.29 2.778-1.793 5.194-4.104 7.405-6.613 2.249-2.554 3.706-5.579 5.88-8.195 8.026 10.41 15.654 20.979 24.181 30.939 4.025 4.701 8.402 8.589 13.362 12.163 2.071 1.494 4.125 3.198 6.382 4.378 2.822 1.478 5.976 2.394 8.876 3.742 11.12 5.168 21.733 10.817 32.106 17.485 5.019 3.225 9.231 6.924 13.651 10.97 1.375 1.26 12.643 8.601 8.816 10.91Zm-130.445-85.283c-1.797.859-3.51 1.974-5.427 2.525.544-3.488 3.63-8.749 7.586-8.17 1.512.221 2.652 1.459 1.988 3.166-.604 1.551-2.867 1.868-4.147 2.479ZM79.497 251.971c-2.0375 1.187-3.9357 1.878-5.1302-.669.8848-.187 4.9042-.752 5.1302.669Zm-3.3922-7.198c-1.5742-.504-.3151-1.033.2265-1.641.4221-.473 1.8193-2.132 2.3083-2.406 2.1595-1.206 3.8287 3.283 4.8612 4.74-2.4446-.229-5.016.068-7.396-.693Zm16.8331 15.544c-2.9839.533-2.6527-3.404-2.5636-5.399.6295.81 4.8904 4.983 2.5636 5.399Zm9.8891-6.802c-3.638.648-6.042-5.981-5.3897-8.881.5739-2.555 3.3937-3.981 5.6377-4.358 2.176-.365 5.204.133 5.851 2.78.571 2.338-3.674 10.028-6.099 10.459Zm86.116 100.078c-2.614.847-5.176.954-7.804 1.786-2.981.944-5.74.86-8.728 1.502-1.215.261-4.494 2.129-5.679 1.712-1.174-.414-2.874-4.257-3.549-5.257 5.286-2.317 9.795-5.309 13.278-10.192 2.771-3.883 5.741-9.7 3.999-14.711-1.966-5.65-8.741-6.877-13.259-4.517-2.137 1.116-4.255 2.504-6.017 4.204-2.015 1.945-2.807 4.068-4.112 6.466-1.32 2.426-2.246 1.076-3.565-.984-1.127-1.76-.98-3.538-2.389-5.275-.718-.886-1.831-1.741-2.206-2.886-.238-.726.263-2.013-.187-2.584-.635-.803-1.406.14-1.937-.577-.386-.52-.26-1.707-.659-2.358-.345-.371-.73-.687-1.155-.95-.516-.268-.61-.605-.283-1.009-.41-.8-.014-1.071-.893-2.045-1.369-1.518-2.617-2.974-3.592-4.766-.445-.82-.401-2.037-.954-2.747-.76-.975-2.025-.828-2.678-2.035-.581-1.075-.192-2.956-1.151-3.932-.506-.152-1.012-.302-1.518-.45-.381-.39-.603-.863-.666-1.42-.533-.865-.638-1.881-1.311-2.795-1.287-1.747-3.019-3.362-4.156-5.205-1.195-1.937-.561-2.263 1.515-2.956 1.873-.626 3.583-1.207 5.318-2.272 8.025-4.925 15.632-17.99 2.896-21.982-4.727-1.481-8.61-5.464-13.851-3.899-2.272.679-4.427 2.125-6.122 3.839-1.171 1.186-2.256 4.356-3.693 4.964-2.586 1.092-1.493-1.636-2.226-2.89-.351-.598-1.761-1.287-2.283-1.832-.614-.638-1.207-1.443-1.633-2.233-.79-1.465-1.274-2.282-2.414-3.475-.43-.451-2.575-2.778-.64-2.474-.784-2.519.36-2.898 1.941-4.739 1.856-2.161 3.773-5.164 3.783-8.193.022-5.814-6.511-8.42-10.6132-4.968-.8346.702-5.7723 7.482-4.7619 3.158.5446-2.332 5.5881-8.419 7.9261-6.844-2.62-4.028-8.6393 5.753-10.0443 7.754-1.1963-2.323-1.2812-4.141-3.2607-5.939-1.6112 2.726-.7604-.253-1.1156-.859-.7676-1.308-.3461.188-.7622-.277-.5184-.578-1.3344-1.035-1.8856-1.801-.9447 1.352-.5674-.103-.8568-.607-.6767-1.181-.4149-1.865-1.5747-2.892-.8442-.747-2.5068-1.906-3.6427-2.012-1.3099-.122-1.6728.407-3.0072.015-1.6979-.498-3.8346-1.262-3.0126 1.733.5967 2.176 3.0227 3.413 3.5542 5.637.5351 2.238-1.5633 4.494-2.5815 6.33-1.3075 2.354-2.3764 2.162-4.7451 2.692-1.5138.34-3.5339 1.066-2.236 3.002.9273 1.384 3.0999 1.093 4.3237 1.912 1.7158 1.15 1.6919 3.983 3.8824 4.476 2.4123.543 3.7946-2.29 5.8285-2.974 1.4462-.487 5.9265-.433 7.0648.713 1.5514 1.561.211 4.542.6014 6.481.5805 2.875 2.4249 3.051 4.7571 3.143 2.8715.113 3.8807 3.021 5.4249 5.327 3.617 5.403 6.761 11.162 10.465 16.493 1.64 2.36 4.04 4.459 5.382 7.021 1.659 3.163-.644 4.988-2.63 7.258-2.596 2.968-4.534 6.344-6.786 9.587-2.001 2.882-4.487 2.164-7.6847 2.164.7127-1.549 1.57-2.515 3.3227-2.327-1.8328-2.361-3.2987.34-4.4879 1.835-1.72 2.164-3.9625 2.685-6.1722 4.108-.782.503-5.0399 3.765-3.7461 4.879.147.126 7.1951-4.764 7.998-5.213 0 1.806-.3742 3.681-.1345 5.476.1758 1.317 1.0534 2.69.8663 4.059-.3545 2.583-3.5201 4.619-4.8791 6.632-1.0229 1.515-.776 2.71-1.2967 4.336-.4747 1.484-.2254 1.035-1.4086 1.494-2.4093.933-6.4639.429-8.6455-.898-1.3541-.823-2.3926-2.125-3.4926-3.273-.8287-.865-2.9128-2.342-3.1429-3.552-.3952-2.084 3.5273-5.956 4.3039-8.106 2.1923-6.066-1.5676-10.782-7.4181-11.126 1.8031-1.468 4.0384-.362 5.939.198-3.2493-4.749-8.7986-.841-11.5547 2.386-1.8832-5.021-2.7913-10.317-3.9416-15.554-.7838-3.565-3.7665-9.929-2.4362-13.6.6432-1.774 2.4589-2.764 3.715-3.994 1.4271-1.399 2.6491-3.07 3.6923-4.801 2.4584-4.078 3.8777-9.225.4933-13.243 1.0283-.178 2.0572-.356 3.0855-.535-1.6728-1.658-4.3117-.85-6.4825-1.342-1.3775-.311-5.3406-.109-6.2601-.932-1.1061-.988-.397-5.537-.3575-6.883.0908-3.146.3401-6.17.6695-9.297.3121-2.954.2494-6.146.8281-9.048.4699-2.355 1.9711-3.073 3.7037-4.46 4.1407-3.319 7.515-7.355 6.101-13.074l1.503-.252c-1.6201-1.235-3.7168-.786-5.5187-1.439 1.6548-4.913 5.3149-13.549 11.2575-14.014.2045 2.196.0646 4.808 1.4695 6.626 1.5993 2.069 4.4068 2.278 6.5734 1.183 1.9657-.995 3.8113-3.102 4.7177-5.184.6128-1.409.5022-3.792 1.5783-4.909 1.4432-1.498 11.3925-.594 11.0877 1.935-.1793 1.486-2.8398 3.985-3.5835 5.303-1.3607 2.411-2.45 5.02-2.9498 7.789-.7587 4.206-.3192 9.758 3.73 11.969 4.6051 2.516 10.2181-.683 13.9941-3.445 2.074-1.518 4.083-3.192 5.978-4.95 1.009-.935 2.023-1.899 2.912-2.963.657-.786 1.182-2.053 1.99-2.641 1.91-1.389 3.782.968 5.398 2.159 2.632 1.94 5.251 3.782 8.077 5.396 5.733 3.276 10.975 7.615 16.045 11.924 5.099 4.334 10.356 8.792 14.487 14.192-2.502 1.623-2.056 2.045-3.169 4.94-.79 2.055-1.878 3.803-2.003 6.086-.217 3.94 2.181 7.298 5.82 8.17 2.036.488 3.976.097 5.861-.78 1.466-.683 2.927-2.362 4.458-2.779 2.846-.774 5.124 4.897 6.72 6.895 7.086 8.873 14.576 17.395 21.249 26.63.739 1.023 2.934 3.021 3.112 4.375.257 1.945-2.644 3.798-3.847 4.913-.632.585-7.331 7.232-5.081 8.288.64.302 2.518-3.776 2.987-4.125 1.757-1.306.428 1.253.323 2.547-.261 3.216 1.833 4.969 4.777 4.561 3.141-.435 5.938-3.051 7.882-5.521 2.437 2.976 6.245 7.475 6.949 11.45.45 2.541-1.633 8.757 2.256 9.275.594.079 2.743-1.603 3.143-.648.335.797-1.988 2.158-2.323 2.422-1.432 1.127-2.296 2.335-3.452 3.7-1.356 1.602-3.21 2.952-4.737 4.487-1.608 1.617-4.788 6.01-6.91 3.888-1.067-1.066-.786-2.461-2.494-3.087-1.556-.57-3.527.153-4.972.785-1.628.711-6.987 3.308-7.582 5.446-.82 2.948 3.61-.596 4.397-1.114-.898 2.405-1.395 5.886-3.682 7.289-1.901 1.166-4.634 1.851-6.719 2.527Zm-30.381-18.189c1.521-5.157 10.491-14.351 16.16-11.475-6.607 1.46-11.85 6.23-16.16 11.475Zm3.354 14.766c-2.211-1.299-2.092-5.075-2.864-7.283-.443-1.267-1.329-2.193-1.068-3.599.305-1.648 2.298-3.481 3.359-4.67 3.34-3.742 9.217-8.855 14.592-7.998 6.842 1.093 2.204 10.781-.126 14.117-1.985 2.844-9.637 11.935-13.893 9.433Zm-15.961-6.306c-7.399-.522-14.773-1.219-22.071-2.651-2.587-.508-4.755-.433-3.275-3.571.489-1.036 3.437-7.526 4.102-7.34.395.11.305 4.571.421 5.083.522 2.296 1.989 4.436 4.463 4.29 4.046-.238 6.655-5.756 8.786-8.719 1.706 2.421 2.942 5.11 4.658 7.491.82 1.137 3.676 3.784 2.916 5.417Zm-43.378-30.634c-1.241 3.005-3.7377 5.862-5.4739 8.584-.9817-2.192-1.6722-7.223.6564-8.844.8813-.612 5.6025-1.639 4.8175.26Zm25.662 8.947c.341-1.157.719-2.304 1.142-3.431.724 2.404 1.094 2.475-1.142 3.431Zm6.333 2.461c.898 1.606 2.395 3.185 2.16 5.201-.178 1.528-1.487 3.093-2.422 4.158-1.547 1.761-4.976 5.142-7.217 2.803-1.874-1.954-1.221-7.325-.35-9.523 1.244-3.141 5.688-6.464 7.829-2.639Zm-4.394-3.29c.515-.216-.567-3.72.437-4.069.875 2.105 1.7 2.675-.437 4.069Zm-14.138-47.161c-.334-1.293-1.098-1.239-.823-2.838.181-1.048.97-2.167 1.568-2.997 1.192-1.655 2.765-3.02 4.466-4.053 3.591-2.18 8.522-3.085 11.736.328-3.005.5-12.219 3.629-12.277 7.965 3.342-.679 5.97-4.22 9.322-5.336 2.751-.916 5.735-.852 8.472.116 7.493 2.647 4.377 9.477.149 13.913-2.511 2.634-5.521 4.6-8.812 5.957-1.522.628-2.457.698-3.954.382-.28-.059-.608-.608-.944-.725-.835-.292-.593.697-1.281.252-.6-.386-1.881-2.885-2.289-3.601-.65-1.139-.953-2.246-1.751-3.285-.798-1.04-1.187-2.434-1.926-3.375-.354-.453-1.327-.435-1.588-.877-.391-.664.107-1.147-.068-1.826Zm-11.506 50.937c1.702-3.121 4.616-5.77 6.87-8.497.138 4.483-2.909 7.552-6.87 8.497Zm2.301 1.441c3.516-1.305 5.454-4.427 5.813-8.213.455-4.795 3.31-7.312 5.028-11.62.659-1.651 1.427-7.084 3.982-5.529.877.533 1.396 2.539 1.853 3.445 1.105 2.193 2.361 4.318 3.533 6.471.954 1.753 2.384 3.515 1.963 5.625-.367 1.84-1.549 3.8-2.24 5.535-1.634 4.097-3.779 7.871-5.572 11.878-.724 1.617-1.58 5.444-3.788 5.425-1.748-.016-1.553-2.032-2.704-2.723-1.453-.872-3.104.788-4.298 1.476 1.374-2.447 3.777-3.833 6.477-3.373-3.233-3.396-5.418 1.187-8.193 2.207-2.629.968-7.295-3.594-9.5084-4.886.8474-1.513 1.6124-3.363 3.0684-4.358 1.382-.945 3.078-.8 4.586-1.36Zm-28.5905 31.039c.385-1.956 1.4731-3.112 2.163-4.888.7999 2.154-1.0731 3.424-2.163 4.888Zm55.8715 12c-.189 6.586-.699 13.154-.883 19.742-.085 3.038-.595 5.936-.933 8.938-.287 2.54-.141 5.034-1.656 7.203-2.39 3.421-7.035 4.404-10.642 5.671-2.648.931-5.327 1.775-7.943 2.809-2.353.93-4.25 2.339-6.488 3.445-2.002.989-4.163 1.575-6.1554 2.629-2.0608 1.091-3.69 2.419-5.8069 3.39-2.5343 1.161-4.6226 3.229-6.8765 4.87-1.9843 1.444-4.0834 2.56-5.7902 4.376-1.6005 1.705-3.6266 2.452-5.4405 3.966-1.9179 1.601-3.9255 2.641-6.0443 3.897-4.3404 2.572-10.1963 6.966-15.4197 4.467 1.494-2.013 4.5514-3.947 4.784-6.72.3025-3.612-2.6784-2.282-4.4044-1.129-2.6144 1.747-4.0606 3.856-6.0509 6.185-2.3268 2.722-5.2658.89-8.1128.125 1.9466-1.849 3.8777-3.714 5.8207-5.566 1.6405-1.562 4.1503-3.252 5.1493-5.413.7138-1.545.6791-3.663-1.0439-4.465-1.9275-.897-4.1072.994-5.5349 2.121-3.7898 2.99-6.2858 6.783-8.7741 10.945-1.3236 2.213-1.9334 2.043-4.3685 1.601-2.5803-.469-5.1612-.969-7.7631-1.298 3.4467-3.733 7.2986-7.778 10.0206-12.146.8819-1.415 2.0321-5.145-.6546-5.489-1.1072-.141-3.3115 2.247-4.1658 2.89-3.7324 2.814-7.3207 6.364-9.7947 10.472-.8166 1.356-1.0731 2.864-2.6544 2.977-2.0674.147-5.9092-1.934-7.90361-2.577 3.81191-5.068 7.59691-10.173 12.05031-14.642 4.0917-4.107 8.1732-7.091 12.9584-10.24 5.129-3.377 9.9064-7.264 14.6151-11.253 4.5072-3.819 9.2159-7.42 13.365-11.684 8.2874-8.516 15.6691-18.31 21.7821-28.667 1.4301-2.423 2.7764-4.909 3.9404-7.488 1.0929-2.421 1.5969-5.317 3.0724-7.52.51-.761 1.228-1.326 1.6823-2.12.4287-.748.2834-1.652.9369-2.314 1.5113-1.53 4.2633-.607 5.676.466 2.2717 1.724 4.1097 3.818 6.6067 5.262 2.511 1.452 5.228 2.508 8.008 3.222 6.5 1.666 12.943 3.034 19.564 4.047-.682 2.665.992 3.084 1.546 5.482.673 2.91-.19 6.57-.274 9.533Zm-62.58-44.44c-1.4737-2.309-2.7884-4.724-4.237-7.048-.8818-1.415-1.9753-2.936-1.2214-4.667 1.2698-2.918 5.7495-3.438 8.1804-2.166 5.5265 2.893.3928 11.164-2.722 13.881Zm-14.6283-52.812c-.5087-4.513 1.1276-7.715 4.9987-10.082 2.7591-1.687 4.9807.619 4.604 3.693-.5733 4.685-5.3191 9.895-8.9408 12.339-.2368-1.981-.4377-3.967-.6619-5.95Zm-.59-12.913c1.1419-.956 4.1999.263 5.5229.347-1.8192 1.677-3.6391 3.353-5.459 5.03-.1189-1.15-1.1173-4.495-.0639-5.377Zm6.1399-43.588c9.2075-1.262-1.3918 9.16-4.06 10.793.434-2.218 1.5006-10.441 4.06-10.793Zm24.5119-18.246c-1.2363 5.342-10.848 11.169-10.9484 2.419-.0371-3.26 1.6991-2.996 4.2333-3.309 1.4457-.178 7.4218-2.163 6.7151.89Zm-33.1993 8.272c-1.0791 2.987-1.9442 6.052-3.0018 9.042-.4687 1.324-1.0199 2.234-1.8928 3.284-.7306.877-1.5998 1.098-1.5711 2.485.9153-.186 1.6315-.762 2.371-1.316-.1793 2.748-1.1006 5.707-1.5466 8.447-.5345 3.286-.9793 6.573-1.1443 9.905-.3581 7.246-.3611 14.465-.2104 21.715.0771 3.694.1118 7.39.3007 11.08.0944 1.836.2009 3.679.4161 5.504.0873.736.5943 2.304.281 2.995-1.2298 2.709-6.6774-4.734-9.0431-3.642.3401-2.062-.4448-1.611-1.7559-2.625-.6349-.492-1.0481-1.328-1.7105-1.766-.2003-.227-.4209-.43-.6612-.608-.2738-.394-.5626-.352-.8663.126-2.6652-1.681-3.3539-5.262-4.7846-7.672-.7359-1.238-1.4468-1.432-1.5723-3.144-.1088-1.493.104-3.014.0466-4.512-.0652-1.691-.159-3.555-.6086-5.192-.5219-1.901-1.24-1.746-2.6383-2.759.431-.198.715-.532.8525-1.001-.4466.084-1.8037.668-2.1409.248-.663-.824.9016-.934 1.3129-1.263-1.7547-.822-1.3769-1.497-.7438-3.003.1794-.426.3504-1.062.5028-1.421.333-.785.5244-.288.6344-1.263.1046-.93-.6768-2.758-.907-3.748-.3862-1.662-.5996-3.097-.2529-4.828.281-1.402 1.0367-2.671 1.0893-4.112.015-.405-.5697-.539-.5775-.93-.0114-.571.4938-.822.6253-1.35.3354-1.35.1842-2.778.7581-4.06.5166-1.151 1.5598-2.64 2.2982-3.645.5117-.696 1.7672-1.481 1.9047-2.399.0909-.609-.8077-.539-.7676-.998.0544-.621.5482-.822.6839-1.284.3737-1.266.4675-2.484 1.4331-3.454 1.216-1.222 1.7445-.71 1.7947-2.725.0245-.983-.721-1.135-.3216-2.268.217-.616.8573-.979 1.2668-1.415 1.2161-1.294 2.0357-2.443 2.9014-4.041.7658-1.413 1.9873-2.234 2.7716-3.454 1.0218-1.59-.5057-2.378 1.5676-2.827-.2947-.987-.608-1.785.1674-2.62.489-.527 1.7302-.205 2.163-.814.4962-.7-.2373-2.358.5106-2.813.608-.368 1.5185.769 2.4739.206.7282-.429 1.8276-2.799 1.5933-3.67 1.8826 1.117 1.4133.348 2.3143-1.085.202-.321.8142-.393.9882-.717.348-.648.2684-1.309.7694-1.836.8352-.877 2.2013-.652 3.1202-1.278.7593-.518.7192-1.076 1.3249-1.564.5177-.417 1.3679-.497 1.8712-.93.9859-.847.9955-1.741 2.2288-2.47 1.4606-.864 2.7543-1.598 4.0828-2.743.8663-.746 1.6883-2.069 2.7017-2.561 1.4013-.681 2.493-.729 3.8639-1.7.9906-.702 1.9274-1.861 2.9001-2.453.7336-.445 1.2484-.35 2.1732-.626 1.6645-.498 2.0698-2.152 3.4275-2.825.9321-.463 2.2892-.039 3.3127-.282 3.1854-.754 6.3319-2.381 9.528-3.283 3.9016-1.099 7.8311-2.062 11.7621-3.034-3.613 5.165-8.2145 9.825-12.8813 13.927-1.5317 1.346-9.9261 7.485-5.4016 10.106 1.8163 1.052 5.7621-2.346 7.2286-3.177 2.9528-1.672 6.0114-3.012 9.1043-4.365 5.001-2.188 11.514-6.079 17.071-5.766-3.383 4.378-7.606 7.892-11.475 11.76-3.556 3.554-8.9143 6.887-7.237 12.704-4.9953-1.34-9.4816-2.924-14.6745-2.573-2.3263.157-4.6537-.138-6.9692.206-2.5182.375-4.8892 1.264-7.3087 2.044-1.9144.616-4.0296.665-5.7908 1.69-.8514.496-1.9036 1.204-2.6682 1.82-1.0194.82-1.2513 1.363-2.0519 2.444-2.8559 3.857-5.6192 7.473-7.3165 12.172Zm-15.6218 73.004c-.1561-.668-.2978-1.277-.4765-2.039 1.5897 1.032 1.5897 1.032.4765 2.039Zm-12.0139-21.262c-.1961.286-1.0193.377-1.2584.13-.2978-.306.4848-1.5.6104-1.754.3102.251 1.0241 1.073.648 1.624Zm-3.4035-7.738c.2104-.816.4214-1.631.6319-2.446.2583.756 1.4235 1.591 1.4492 2.311.0161.477-1.851.24-2.0811.135Zm.6755 1.118c1.8241 1.266 2.0148 2.761 2.0692 4.947-2.1828-.763-1.8695-2.992-2.0692-4.947Zm31.7208-86.267c-.1841.526-.9655 2.164-1.5382 1.018-.183-.366 1.1574-.867 1.5382-1.018Zm-.5237-1.785c.4508-.428 1.3595.105 1.8695-.242.3575-.243.2391-.489.4071-.633.0335-.029.5196-1.066.7187-1.302.3515-.414 1.1185-.672 1.546-1.045 1.1945-1.045 1.8689-2.418 2.6204-3.814.8968-1.668 1.1825-1.861 2.6287-2.625.9973-.526 1.7703-1.171 2.5816-2.065.935-1.031.8663-1.769 1.6339-2.895.379-.556.9249-.625 1.3667-1.073.5297-.536.7987-1.287 1.2884-1.828.2116-.234.8907-.234 1.0187-.434.1632-.254.2905-1.269.4436-1.456.2923.417.5853.833.877 1.25 1.1527-2.138 1.9939-3.905 3.9214-5.328 2.0243-1.494 3.7718-3.68 5.8643-5.018.4699-.3 1.4282-.427 1.7876-.87.6074-.75.0813-1.417.5243-2.054.5028-.722 1.4767-.137 2.1158-.448.8089-.394 1.0402-1.545 2.0817-1.418-3.4245 4.273-3.3815 10.922-3.5632 16.259-.0789 2.299 1.2943 3.458-.733 5.146-1.7242 1.436-4.1556 1.01-6.1943 1.954-2.56 1.187-5.2982 1.818-7.9102 2.852-2.7017 1.069-4.8743 2.942-7.4743 4.18-2.2928 1.092-3.8586 2.645-5.9558 3.992-.7796.502-1.9873 1.229-2.9169.63-.5823-.375-1.3075-.992-.5477-1.715Zm38.6756-35.828c.1489-.607 3.0718-2.202 3.791-2.723 1.0791-.782 2.6766-2.693 3.8808-1.934.418-1.763 2.046-3.725 3.485-4.099 1.597-.415 4.335-1.859 5.906-3.119.458-.368.61-.906 1.15-1.251.939-.602 1.872-.274 2.777-1.093.139-.125 1.391-2.307 1.441-2.286.064.234.123.471.173.708.951-.555 1.798-.998 2.39-1.707.135-.161-.737-.58-.462-.898.337-.39 1.089.046 1.429-.325-1.058 5.541-.27 12.673 5.059 15.482-6.338.722-12.528-1.288-18.944-.053-3.072.591-6.1935 1.561-8.9873 3.051-1.7116.913-3.9003 4.183-5.6042 2.596.6762-.951 1.7074-1.542 2.5157-2.349Zm30.7528-15.94c2.369-3.057 5.964-4.267 9.585-3.172 4.239 1.282 2.451 4.406 1.811 7.874-1.223-1.891-3.873-3.767-6.129-3.824-3.199-.08-1.99 2.731-.069 3.738 1.746.915 4.741 1.17 5.991 2.834 1.217 1.619.75 4.267.946 6.177-.945-.148-1.891-.297-2.838-.445.794-4.457-2.7-4.672-5.957-5.929-3.293-1.269-6.037-3.773-3.34-7.253Zm10.616-10.974v4.136c-1.318-.793-2.636-1.585-3.955-2.377 1.319-.587 2.637-1.173 3.955-1.759Zm10.594 33.048c4.4 1.258 8.771 2.589 13.001 4.324 1.536.631 3.219.854 4.725 1.566 1.433.677 1.649.606 1.139 1.931-1.429 3.713-4.812 3.072-7.777 2.504-4.641-.89-9.185-2.122-13.767-3.282-4.48-1.133-9.053-1.875-13.465-3.295-4.527-1.457-8.938-2.836-13.595-3.798-1.359-.281-12.109-1.321-12.027-2.506 6.77-.928 13.741-.014 20.541.083 7.068.1 14.37.513 21.225 2.473Zm-5.974-14.361c.084-2.553.118-5.113.418-7.651 2.014 2.622 3.832 3.407 6.372.949 2.43-2.352 2.973-3.579 6.055-1.367 2.671 1.918 5.199 1.83 8.037.151 1.73-1.025 4.512-5.21 6.331-4.349.867.411 1.502 2.067 2.377 2.676 1.099.762 2.788 1.292 4.068 1.588 3.023.699 4.824-1.352 6.722-3.546 2.752-3.181 2.671-1.333 5.223.872 2.845 2.461 5.225 1.258 7.802-.841 1.57 4.851 2.157 10.149 2.6 15.235.15 1.717.709 4.155-.754 5.369-1.03.857-3.218.89-4.46 1.363-4.436 1.692-8.698 4.092-12.409 7.165-1.445 1.197-2.705 2.663-4.681 2.39-1.882-.26-3.712-1.922-5.226-3.019-1.643-1.19-3.306-2.542-5.226-3.205-1.125-.389-2.926-.248-3.91-.961-1.829-1.325.324-4.799-.132-7.132-.345-1.77-1.311-5.463-3.624-4.425-3.441 1.545-1.438 7.573.454 9.455-3.871-.725-8.157-1.784-11.891-3.13-2.884-1.039-4.25-4.473-4.146-7.587Zm64.925 12.433c7.946-2.353 15.382-3.94 23.652-4.368 3.661-.19 7.205-.07 10.825-.036 2.084.02 3.672-1.752 2.007-3.791-2.304-2.824-9.332-1.749-12.447-1.876-8.347-.34-16 .661-23.906 3.563.836-1.624 2.844-1.835 4.221-2.675 1.688-1.031 2.836-2.729 3.558-4.614 1.876-4.902-.013-9.522-1.976-14 3.857 1.094 7.846 3.491 11.723 4.099.813.127 1.335.045 2.054.358.441.191.58.853 1.127.997.265.071.9-.559 1.198-.47 1.181.352.247.445.994.955.593.405.545.925 1.632.734.482-.084 1.004-.87 1.258-.892.324-.027.249-.443.744-.321.9.22.821 1.444 1.121 2.046.32.641-.135 1.494.837 1.845.726.262.909-.547 1.526-.489.375.036 1.153.605 1.485.953 1.067 1.118 2.528 2.353 3.963 3.08-.141-.149.676-.509.48-.594-.131-.056.727.162.714.159.829.199 1.266 1.54 1.685 2.029.77.897 1.966 1.844 3.045 2.24 1.866.684 1.81-.134 2.491 2.204 1.326-2.199 1.835 1.485 3.48 1.891.852.21.753-.175 1.527.295.532.322.886 1.31 1.287 1.786.172-.687.343-1.375.515-2.061 1.185 2.367 3.743 6.122 6.548 5.443 0 .647-.253 1.419.222 1.971.331.385.867-.053 1.126.171.226.196.767.975.941 1.103.341.252.961.436 1.258.688.261.222.39 1.28.68 1.662.545.719 1.486.862 1.932 1.724.101-.85.203-1.701.304-2.551.884.72.96 1.279 1.177 2.332.309 1.501-.101 1.149.88 1.782.963.623 1.466.553 2.35 1.633.866 1.059.874 1.712 2.124.609.233.816.307 1.871.928 2.497.469.472 2.41.493 2.595 1.609-3.647-3.246-1.247 1.684.002.008.264 1.794 1.508 2.373 2.929 3.65 1.326 1.19 1.543 1.104 1.995 3.104-.01-.044.666.398.715.486-1.291.195.711 1.717 1.05 1.995.247.203.568-.282.978.047.47.376.852 1.231 1.234 1.747 1.035 1.397 1.8 2.598 2.89 3.735 1.175 1.227 1.747 2.777 2.875 4.211 1.252 1.592 1.93 3.423 2.977 5.151.995 1.644 2.317 2.964 3.469 4.469 1.838 2.396 2.462 7.671 5.888 7.81-.201.219.078 1.854.111 2.156.162 1.485.054 2.914.887 4.258.191-1.534.952-.942 1.613-.137 1.099 1.341.134 1.004.192 2.363.07 1.647.248.372.843 1.811.466 1.126.721 1.857.971 3.107-1.935.162-2.821-1.506-3.536-3.121-.299-.676-.402-1.787-.931-2.315-.564-.562-1.337-.606-1.916-1.234-1.111-1.205-1.592-3.084-2.901-4.258-1.479-1.325-1.807-1.951-3.03-3.535-1.352-1.753-3.22-2.983-4.638-4.679-1.421-1.698-1.306-.771-3.091-1.385-1.898-.655-4.968-6.95-7.359-4.525.094-1.586-2.158-3.078-3.296-3.653-.492-.248-1.065-.023-1.558-.395-.533-.404-.572-1.183-1.11-1.668 0 0-.826.212-.993.123-.342-.183-.344-.828-.645-1.04-.834-.587-1.828-1.203-2.712-1.704-2.15-1.216-4.05-2.713-6.124-4.177-1.777-1.255-3.928-3.52-5.982-4.182-1.794-.577-2.923-.283-4.391-1.44-.801-.63-.565-.841-1.851-1.233-1.225-.373-1.912-.181-2.561-1.55-1.135-2.397-.419-7.073-.638-9.761-.233-2.851-.51-5.774-1.215-8.547-.834-3.277-1.935-4.99-5.268-4.218-6.604 1.531-13.128 2.987-19.761 4.331-13.219 2.679-26.211 7.049-39.14 10.93-.985.296-6.478 1.622-5.356-1.374.517-1.382 3.994-1.897 5.158-2.331 6.39-2.386 12.809-4.816 19.341-6.75Zm-2.221-6.098c-.966.388-1.931.776-2.896 1.165v-2.832c.965.556 1.93 1.111 2.896 1.667Zm-4.013-14.972c.839.723 2.545-1.018 3.258-1.37 1.219-.602 2.77-1.119 4.131-.996 2.511.23 4.347 2.836 3.887 5.479-.778 4.472-6.819 6.587-10.15 8.335-.107-1.585-.593-3.49.461-4.861.914-1.19 2.688-1.103 3.532-2.369 2.124-3.182-3.632-3.47-4.919-.941-.507-1.616-1.015-3.233-1.523-4.85 1.225-.214.687 1.025 1.323 1.573Zm5.942-8.753c-1.199.817-2.397 1.634-3.596 2.451-.594-2.829 1.431-3.201 3.596-2.451Zm109.212 98.467c-1.57.79-1.962-1.097-3.09-1.179 1.333-.864 1.333-.864 3.09 1.179Zm6.384 41.198c.195 2.712.042 5.455.385 8.156.26 2.055 1.05 3.967 1.134 6.045.184 4.552-1.273 9.186-4.216 12.523-2.783 3.156-6.766 5.872-10.524 7.199-1.693.597-3.46 1.921-5.105 2.411-1.819.542-3.547-.637-5.048 1.478-1.001-9.073-.27-18.555-.348-27.686-.079-9.15.014-18.304-1.454-27.356-1.307-8.062-3.883-17.129-8.633-23.725-1.929-2.678-4.304-4.872-6.809-6.925-1.3-1.065-2.6-2.204-4.048-3.046-2.228-1.295-4.126-1.115-6.549-1.485-3.468-.528-6.691-.974-10.172.056-3.24.959-6.809 2.052-9.712 3.718-2.891 1.66-6.248 2.344-9.25 3.831-2.041 1.011-6.282 4.391-8.548 3.782-2.193-.589-5.438-4.514-6.838-6.272-1.79-2.248-3.27-4.852-4.857-7.27-.558-.848-1.694-2.16-1.839-3.25-.252-1.892.467-1.274 2.181-1.062 4.406.545 8.549 1.407 12.772 2.87 2.102.727 6.211 3.672 8.312 1.907 3.209-2.694-1.667-7.324-3.453-8.879-3.042-2.651-6.58-4.619-9.823-6.974-3.445-2.503-8.002-5.167-10.219-9.021 6.475 2.016 12.944 4.325 19.231 6.924 2.876 1.189 5.719 2.446 8.42 4.027 1.517.888 4.583 3.29 6.41 2.14 3.972-2.501-5.151-9.764-6.467-11.249-2.045-2.306-4.049-4.591-6.297-6.683-1.517-1.412-3.899-2.405-4.604-4.487 2.517.961 4.552 2.843 6.909 4.123 1.234.67 2.36 1.055 3.723 1.26 1.453.22 1.626.464 2.771 1.073.891.475 1.807 1.11 2.808 1.433.713.231 1.959.271 2.583.697.318.48.647.951.987 1.414.381.118.755.254 1.124.409.553.52.88 1.237 1.418 1.773 3.904 3.894 9.126 6.68 13.503 9.942 4.141 3.086 8.535 5.878 12.512 9.246 4.576 3.877 9.326 8.043 13.219 12.692 2.2 2.627 4.008 5.605 5.856 8.51 1.338 2.104 3.284 3.849 4.441 6.017 2.521 4.729 4.614 9.841 7.329 14.493 2.766 4.741 6.369 9.451 6.785 15.221Zm-37.202 27.437c.754-3.282 5.009-7.114 7.728-8.561-1.371 3.576-5.022 6.014-7.728 8.561Zm7.016 11.447c-2.319 5.075-12.517 5.656-11.134-1.854.678-3.68 3.556-5.938 6.026-8.346 1.141-1.113 3.938-5.094 5.705-4.453-.083 2.862-.242 5.737-.236 8.599.003 1.911.459 4.258-.361 6.054Zm-2.948-58.493c.941 2.228 1.879 4.084.133 6.079-.787.9-3.355 2.868-4.516 2.431-3.727-1.402 3.379-7.508 4.383-8.51Zm-22.545-19.832c.898-.052 1.769.089 2.656.031.884-.058.977-.223 1.796-.105.087.132.173.265.26.397.112.889.555.986 1.328.291 1.075.252 1.775.421 2.803 1.033-2.775 2.111-6.154 4.565-9.557 5.274-5.378 1.12-3.892-6.654.714-6.921Zm-82.453 47.47c-.558 1.183-2.162-1.773-2.559-2.324.74-.003 3.123 1.13 2.559 2.324Zm43.215-31.149c4.179-2.572 9.142-4.83 13.63-6.745.789 4.01-3.06 9.188-5.43 11.932-1.917 2.219-4.228 4.521-6.827 5.798-2.81 1.381-5.881.774-5.745-3.101.05-1.416.356-3.694.902-4.988.705-1.669 2.037-2.015 3.47-2.896Zm-56.487-72.949c.622-.039 7.378-.96 7.342-.073-.106 2.665-6.664.572-7.342.073Zm-47.777 51.457c3.569-4.644 9.33-9.656 9.414-16.147.125-9.551-9.925-4.785-14.977-4.388 2.672-2.769 16.096-14.384 8.156-18.509-2.283-1.186-5.527-.027-7.817.594-4.064 1.102-7.842 3.011-11.834 4.34 2.852-3.203 7.781-6.843 7.62-11.693-.198-5.905-4.793-4.477-8.766-3.611-1.527.334-8.3479 3.195-9.6291 1.252-.4693-.712.29-1.616.4508-2.249.284-1.122.1961-1.513.2056-2.658.0198-2.311 1.4755-5.279.2882-7.428-.2714.488-.504.996-.6971 1.525-.3916-1.251-.1285-2.578-.5201-3.829 9.9197 2.676 20.0107 4.141 29.9927 6.425 5.053 1.156 9.809 3.147 14.931 4.043 5.166.903 10.242 2.286 15.418 3.147 4.722.786 9.246 2.094 13.923 3.097 4.558.979 9.234-1.165 13.683-2.251 9.965-2.43 19.927-4.921 29.906-7.28 11.515-2.723 23.494-5.051 34.516-9.592.213 6.053.673 12.094 1.374 18.105-4.868-2.427-12.092-5.592-17.013-1.249-1.969 1.737-2.576 4.737-1.797 7.289.847 2.777 3.442 4.067 5.154 6.158-5.211-1.409-18.655-11.344-21.048-1.302-1.69 7.092 6.554 11.674 10.585 15.666-4.003-.827-9.364-4.202-11.715 1.223-2.031 4.69.416 9.794 2.922 13.662 1.358 2.096 2.886 4.069 4.33 6.099.763 1.075 1.509 2.164 2.311 3.206.805 1.046 2.323 2.141 2.886 3.266 1.136 2.269-1.155 2.408-2.937 3.228-2.224 1.024-4.135 2.743-6.169 4.113-4.659 3.137-8.73 6.05-14.235 7.053-5.668 1.032-11.125 2.11-16.718 3.549-5.575 1.435-10.127 2.814-15.826.959-2.598-.845-4.715-1.597-7.471-1.438-2.894.167-4.587.009-6.967-1.882-10.242-8.136-21.359-14.812-31.93-22.493Zm-18.464-8.168c3.959-2.094 7.943-4.199 12.032-5.999 3.385-1.491 8.524-3.227 12.229-2.574-1.045 2.83-2.951 5.152-4.995 7.235-1.808 1.843-4.066 4.624-6.254 5.91-1.987 1.168-4.298-.681-6.257-1.456-2.153-.851-5.115-1.248-6.755-3.116Zm.995 10.568c1.973-.864 6.212 2.037 8.006 2.791 3.526 1.483 7.071 3.031 10.178 5.371-3.794 4.624-8.091 8.852-13.196 11.823-3.36 1.954-9.0214 4.196-12.1901.647-3.9811-4.459.8047-13.545 3.623-17.366.0933.654.1871 1.307.281 1.961.8991-1.519 1.5851-4.476 3.2981-5.227Zm72.415 39.581c-2.461.546-3.297.053-4.921-1.938-1.099-1.345-2.178-2.742-3.416-3.952-1.264-1.234-4.385-4.211-.408-2.497 3.624 1.562 6.728 2.343 10.716 1.731 4.559-.699 8.81-2.733 13.305-3.762-2.464 2.274-4.91 4.572-7.38 6.84-2.608 2.396-4.581 2.841-7.896 3.578Zm.563 18.292c-5.393 4.28-16.25 3.817-12.596-5.601.555-1.43 1.332-2.776 2.231-3.995.299-.407.832-1.25 1.259-1.523 1.193-.763.862-.856 2.009.417.99 1.097 8.722 10.064 7.097 10.702Zm-1.599-16.365c.494-.169 2.575-1.442 3.05-.738.48.713-3.601 3.18-3.05.738Zm39.26 65.282c-1.213 3.06-10.917 7.49-9.109 1.322.8-2.733 1.555-4.801 4.576-5.009 1.744-.119 5.6.993 4.533 3.687Zm17.407-41.469c1.598-2.454 6.873-5.771 9.126-2.112 1.085 1.762-1.549 2.665-3.141 2.212-.855-.244-1.555-.783-2.484-.823-1.195-.052-2.364.937-3.501.723Zm4.235 2.435c-1.086 1.16-7.638 6.975-8.699 6.078 2.14-3.226 4.596-6.829 8.699-6.078Zm-10.7 58.842c-2.275.135-1.139-3.481-.919-4.927.551 1.008 3.447 4.776.919 4.927Zm5.781-6.481c-.736-1.382-2.719-3.438-2.271-5.215.343-1.359 3.438-3.186 4.735-2.406 1.721 1.036-.775 7.85-2.464 7.621Zm53.983-14.485c-.974 3.537-1.982 2.624-5.034 3.31-3.061.687-5.178 3.429-7.873 4.899.937-2.087 1.517-4.631 3.085-6.325.362-.391 2.584-1.164 1.318-2.07-1.107-.792-2.698 1.778-3.172 2.479-2.335 3.447-3.968 7.657-5.316 11.624-.663 1.948-1.194 3.933-1.508 5.979-.279 1.823.023 3.731-.263 5.507-.459 2.86-4.142 2.874-6.357 3.612-2.005.667-4.001 1.391-6.082 1.75-1.804.312-3.677-.256-5.426.119-1.893.406-2.744 1.591-4.896 1.323-1.755-.218-3.396-1.069-5.175-1.154-1.664-.079-3.325.528-4.979.034-1.67-.5-1.589-.693-1.209-2.423.237.467.475.934.713 1.4.665-.55 1.126-2.228 1.533-3.016.633-1.221 1.148-1.643.914-3.163-.346-2.245-2.265-3.843-2.7-5.978-.454-2.229 1.108-4.05 2.031-5.911 1.262-2.546 1.245-4.434.188-7.068.797.222 1.595.445 2.393.667-1.094-2.503-4.802-1.488-6.661-.747-.934.372-2.415 1.837-3.421 1.8-1.381-.051-2.102-1.967-2.695-3.022-1.719-3.053-3.68-6.067-5.713-8.902-.559-.779-1.291-1.28-1.098-2.169.164-.753 1.766-1.822 2.287-2.287 1.949-1.738 4.43-2.702 6.261-4.532 2.768-2.765 5.959-4.747 8.788-7.458 2.948-2.824 5.985-5.418 9.057-8.086 3.111-2.703 5.806-5.888 8.895-8.619.801 1.53 2.351 7.007 4.124 7.431 2.067.494 2.006-2.086 1.903-3.639-.147-2.212-1.311-4.362-1.441-6.473-.139-2.259 1.921-3.269 3.476-4.575 2.402-2.018 7.717-6.615 4.86-10.398-2.461-3.259-10.465 2.989-12.672 4.868-1.874 1.597-3.323 3.041-5.434 4.3-1.484.885-3.975 4.289-5.734 3.975-2.093-.374-2.911-2.785-5.471-2.705-2.502.077-4.627 1.978-6.179 3.886-3.507 4.313-4.713 10.085-7.909 14.582-1.576 2.216-3.62 4.047-5.329 6.144-1.877 2.302-2.276 4.955-4.127 7.208-5.297-7.443-11.068-14.49-16.654-21.689-2.789-3.594-5.521-7.232-8.251-10.877-1.023-1.366-2.176-2.648-3.113-4.083-1.283-1.965-1.052-3.543-1.556-5.735-.223-.971-1.269-2.135-.989-3.063.376-1.248 3.021-2.227 3.974-2.737 3.894-2.085 7.426-4.691 11.057-7.238 6.724-4.716 13.526-9.139 20.677-13.167-.124 1.736-1.194 3.534-.475 5.275.335-1.001.865-5.463 2.133-5.655-.243.036-.043 5.722.153 6.534.585 2.423 2.283 4.079 4.713 4.063 4.627-.032 8.774-5.34 11.342-8.857 1.739-2.381 3.409-5.15 4.022-8.13.55-2.676-.055-4.537 2.582-5.896 5.411-2.787 10.865-5.058 16.652-6.536-.259 2.63-.982 5.868 1.284 7.76 2.502 2.088 5.776.227 8.132-1.154 2.333-1.369 5.931-5.127 8.672-4.035 2.695 1.074 4.571 4.639 6.08 7.007 1.33 2.087 2.777 3.592 1.237 5.918-1.726 2.607-2.849 5.151-4.232 7.983-.531 1.089-1.038 1.799-.663 2.914.122.362 1.508 2.517 1.884 2.826 2.401 1.97 5.643-1.778 7.357-3.201.605 6.128.74 12.228.984 18.375.178 4.502 1.831 8.934-1.672 12.225-3.502 3.29-6.425 6.667-8.559 11.122-1.14 2.379-2.162 4.822-3.396 7.152-.824 1.557-2.561 3.84-1.498 5.673 1.122-1.123 1.457-2.831 2.392-4.098.56 2.629 1.123 5.545 3.759 6.659 3.033 1.281 6.048-.936 8.734-2.17-.963 7.027-2.842 13.855-4.714 20.658Zm-3.101 8.077c-2.081 4.692-3.961 10.35-7.805 13.805-.844.758-4.43 3.72-5.795 3.224-1.158-.422-.52-2.89-.318-3.948 1.024-5.37 2.795-8.748 6.923-12.174 1.709-1.418 3.903-3.23 6.106-3.58 2.371-.377 1.689.87.889 2.673Zm58.712 111.374c-5.397-7.74-13.024-13.755-20.233-19.57-3.265-2.634-6.863-4.609-10.161-7.244-3.73-2.978-7.518-5.852-11.695-8.096-7.92-4.257-16.561-7.224-24.035-12.258-3.645-2.454-7.633-4.827-11.06-7.582-1.505-1.211-2.835-2.759-4.195-4.146-1.263-1.289-3.977-3.159-4.48-5.045 2.103-.363 3.3-2.515 5.177-2.735.618-.072 4.493 1.009 3.963-.974 1.406-.037 1.569-.059 2.747-.383.488-.135 1.066.076 1.559-.109.755-.281 1.268-1.092 2.031-1.403.541-.221 2.553.026 2.858-.25.833-.75-.052-.684-.549-1.621 1.619-.043 2.73.819 4.353-.098.493-.279.911-.923 1.39-1.256.849-.592 1.156.326 1.737-.903.545 1.695.53 1.226 1.841.728 1.307-.497 2.25-.856 3.738-.98 3.554-.296 7.122.159 10.66-.108 1.294-.098 2.4-.407 3.686-.229 1.132.157.791.988 1.733-.131.218-.26-.489-.972-.15-1.346.15-.165.637-.049.822-.133 1.654-.762 1.661.302 1.955 1.688.97-.239 1.959-.457 2.802-1.057-.425-.4-1.138-.843-.727-1.575 1.399.559 2.314.301 1.615 1.921 1.407.491 1.671-.149 2.935-.289.748-.083 1.792.407 2.415-.223.68-.687-.393-1.435.856-2.026.257.138.446.345.571.622.675.215.553.496-.364.841 2.457 1.343 1.88-.159 2.912-1.748.238-.366 1.306-1.503 1.792-.954.738.833-.768 1.098-.445 1.927.559 1.436 2.512-.405 3.111-1.132.454-.55.639-1.604 1.128-2.015.678-.57 1.655.311 2.505.154 3.883-.718 7.55-6.225 4.625-9.911-.786-.991-1.451-.794-2.388-1.419-.926-.618-1.446-1.687-2.189-2.57-1.697-2.015-3.774-3.525-6.147-4.49-5.502-2.239-11.431-3.872-17.209-5.073-2.676-.557-5.525-1.408-8.265-1.402-1.614.003-4.045 1.327-5.554.693-2.934-1.233 1.373-7.545 2.084-9.584 2.088-5.99 3.663-12.376 4.696-18.664.202-1.231.125-2.825.545-3.997.482-1.348.586-1.158 1.618-1.267 1.866-.199 3.905.833 5.848.476 2.153-.395 4.48-.211 6.653-.914.999-.322 1.925-.673 2.582-1.562.208-.279-.023-.522.108-.717.041-.062.784-.907.808-.956-.007-.437.028-.871.108-1.301.753.66.382 2.043 1.651 2.075.227-1.475.229-1.772 1.147-2.602-.07.064.691-.618.594-.546.046-.262.137-.508.273-.735.43-.218.883-.334 1.36-.348.992-1.075.58-1.649.58-3.097.8.438 1.601.877 2.401 1.315.194-4.29 2.671-6.64 4.317-10.117.701-1.482 1.416-2.64 1.583-4.427.097-1.031-.155-1.94.249-2.912.367-.882 1.189-1.357 1.532-2.318.676-1.89.172-4.302.209-6.265.051-2.722.309-5.435.393-8.155.166-5.341-.344-10.829-1.101-16.108-.363-2.525-.969-4.975-1.445-7.473-.391-2.054-1.328-3.98-1.663-5.89-.139-.794.076-1.506-.151-2.384-.299-1.154-.799-2.289-1.171-3.422-.868-2.648-1.726-5.291-2.703-7.898-1.892-5.051-4.107-9.95-6.211-14.904-2.025-4.764-3.701-9.676-6.323-14.124-2.583-4.382-5.363-8.689-8.21-12.883-2.965-4.368-6.713-8.121-9.588-12.529-5.399-8.277-12.929-15.096-20.807-20.728-16.256-11.622-33.823-23.225-53.316-27.2099-2.938-.6002-5.913-1.0167-8.907-1.0943-1.858-.0486-4.936.8986-6.695.2354-1.97-.7428-1.79-3.0765-2.283-4.9072-.634-2.3532-2.065-3.8949-3.689-5.5584-1.71-1.7513-3.262-3.7966-5.395-4.9874-2.161-1.2059-4.71-1.6572-7.104-2.0219-2.138-.3263-5.333-.0215-7.286-1.0041-1.778-.8954-.9-1.8275.765-1.0608.122-.7749.221-1.2754.692-1.8743.236-.301 1.353-.7232 1.38-1.004.032-.3288-.905-1.2653-1.039-1.6894-.288-.9131-.124-2.1778.218-3.0348 1.679 1.5746 2.166 2.2719 4.04.7668.793-.6355 1.035-.9157 1.952-1.2363.249-.0871.807.1818 1.024.0309.829-.5755.066-.4398.46-1.1201-.099.1716.597-1.6364.564-1.2584.084-.963.355-.667-.197-1.8502-1.079-2.3148-3.829-2.4095-2.427-5.0511.551-1.0394 1.036-.9359 1.192-2.4429.083-.8103-.021-1.7392-.024-2.5634-.007-1.6856.294-2.8657-1.204-3.7239-1.439-.8255-2.767.0801-3.351-1.9671-.612-2.1481.004-4.9021-2.202-6.3731-1.612-1.0747-3.94-.1559-5.722-.6816-1.785-.5263-3.427-2.4529-5.239-.9737-1.287 1.0513-1.97 3.6362-4.396 2.2384-1.094-.6305-1.697-2.7471-2.387-3.9341-1.1-1.8919-1.982-2.5754-3.675-.7327-1.043 1.1366-3.243 3.9032-3.378 5.4764-.147 1.7367 1.289 2.4625-.514 3.4899-1.795 1.0223-2.801.2726-4.258 2.3475-1.444 2.0586-.326 3.1958-2 5.1653-2.091 2.4618-3.205 3.5245-3.175 6.8414.02 2.275-1.886 4.2402-.774 6.3984 1.246 2.4189 4.882 3.4249 7.087 4.4093-.736 1.4344-1.746 2.3539-.887 3.8306.779 1.3372 2.979 1.6149 4.343 1.372.917-.1629.95-.0165 1.672-.6968.473-.4455-.176-1.0015.798-1.2482 1.037-.2638 2.692 1.8793 3.365 2.4151-1.504 2.0592-5.636 2.4441-7.822 3.4879-1.332.6368-2.556 1.5783-3.912 2.1475-1.231.5163-2.728.3963-3.844 1.1953-1.927 1.3795-2.729 4.7974-3.909 6.8067-1.337 2.2744-2.633 3.3308-5.198 3.8028-3.2.5888-5.777.8254-8.76 2.2952-3.644 1.7943-7.236 3.6903-10.815 5.6243-5.773 3.121-11.135 6.324-16.4953 10.099-5.6078 3.949-11.0626 8.071-16.4732 12.198-5.352 4.081-9.8454 9.102-14.4943 14.037-3.7581 3.99-7.0559 8.296-10.7996 12.285-4.4193 4.709-7.6698 10.653-11.7675 15.649-2.242 2.734-4.3871 5.421-5.7938 8.641-1.1401 2.61-3.1226 5.171-4.4462 7.909-1.6913 3.501-3.2918 6.946-5.1906 10.331-.779 1.389-1.705 2.582-2.5271 3.907-1.0534 1.699-.9912 3.339-1.2746 5.296-.2959-.477-.5913-.955-.8872-1.432-.5363 1.235-1.185 2.451-1.6495 3.716-.2965.807-.2499 1.953-.5476 2.659-.3737.887-.8286.769-1.2944 1.507-.498.79-.6582 1.851-1.1831 2.698-2.2689 3.66-3.1417 8.305-4.3075 12.481-1.564 5.603-1.3171 12.043-1.2322 17.821.0903 6.102.4065 12.205 1.2764 18.243.788 5.468 2.4727 10.713 5.1104 15.507 2.2982 4.178 5.4674 6.613 9.5268 8.753 1.8641.982 3.5943.679 5.5511.836 2.1433.172 3.605.786 5.8727.245 1.088-.259 1.6028-1.094 2.4673-1.373.5351-.172.8232.109 1.3368.044.7347-.094 2.2628-.474 3.0598-.383 2.4793.286 2.0632 4.239 2.3071 6.257.3754 3.11.6505 6.253 1.1568 9.343 1.0648 6.498 3.3636 12.569 4.7219 18.956-6.2966.81-11.6976 2.049-17.599 4.563-5.9205 2.521-11.9062 3.377-18.137 4.63-5.8291 1.173-11.43571 3.364-16.10135 7.333-2.18694 1.86-4.45878 4.036-2.852946 7.099 1.027106 1.959 2.878056 2.457 4.476116 3.595.32284-.431-.61101-1.344-.78199-1.597 1.34337.291 1.30212.952 2.28319 1.528.85732.503 1.5592.485 2.49783.84 2.29155.869 3.41735 3.035 5.68255 3.644.7127.191 1.6447.648 2.3735.778.8753.156 1.5305-.248 2.4177-.077.4789.333.9966.571 1.5532.713.3647-.178.7252-.367 1.0803-.566 1.2747.14 2.062.985 3.0975 1.68.0694-.875-.0305-1.784.7551-2.356.3067.852-.1889 1.391.6481 1.976 1.0606.743 2.4536-.184 3.4029-.653.2685 2.829 6.479 2.662 8.4477 2.622 2.7262-.056 5.4494-1.197 8.1995-.56 1.4032.324 2.9008.663 4.2974 1.085 1.6817.506 3.715.96 5.3705 1.599.6582.254 1.4647 1.069 2.1654 1.014.5578-.044.7073-.912 1.3565-.887.7348.028.9817.891 1.6178 1.151.9518.388 1.827-.35 2.7316.023.3252.134.7658.709 1.1819.896.632.284 1.8821.288 2.5852.425.9966.195 1.8892.064 2.7429.128.6887.052.6738.541 1.0032.572.3778.036 1.0361-1.334 1.5436-1.535.7396-.293 2.0818.405 2.8357.527-5.4632 7.811-12.0503 14.714-19.1905 20.758-7.7021 6.521-15.589 13.033-23.8483 18.753-7.4988 5.193-14.7579 9.684-20.5721 17.014C7.59276 423.371-.210993 429.984.991884 438.944 2.19416 447.895 11.41 451.538 18.7947 453.247c9.2876 2.15 18.8485 1.285 28.1612 2.493 3.9715.516 8.3843.241 12.3821-.199 4.7218-.518 8.7687-3.768 12.8281-6.119 7.3016-4.227 13.5443-9.883 20.7365-14.243 9.0044-5.458 17.9154-11.242 27.7874-14.898 4.593-1.701 9.321-3.642 13.026-7.14.551-.521.962-1.306 1.585-1.735 1.059-.729 1.343.01 1.957-.211.473-.17.931-.709 1.34-.87 1.036-.41 1.498-.241 2.658-.241-.995-.605-1.906-2.166-.873-3.437 1.769-2.179 2.074 1.302 2.739 2.109.563-.764.347-1.443.203-2.311.476.331.952.662 1.429.994-.329-1.679-.016-3.226.827-4.689.778-1.349.97-1.159 1.184-3.028 2.416 2.326 2.889-3.32 3.106-5.379.211-1.996.003-3.429 1.247-5.174 1.337-1.875 3.369-3.059 5.065-4.515 2.679-2.301 5.627-5.206 9.333-3 2.925 1.742 4.517 6.013 7.261 8.207 1.665 1.332 3.422 1.466 4.483 3.53.858 1.669 1.137 3.666 1.947 5.379 1.962 4.153 4.787 8.906 8.009 12.092 2.999 2.965 6.85 2.95 10.36 4.789 3.475 1.821 7.085 3.794 10.764 5.113 4.017 1.442 8.349 2.055 12.26 3.801 2.012.898 3.811 2.251 5.841 3.111 2.188.927 4.494 1.581 6.712 2.43 8.788 3.367 17.388 7.495 26.62 9.361 4.095.828 7.886 3.076 12.01 3.55 1.769.203 3.213.46 4.944.927 2.716.732 2.141 1.121 3.142 3.51 1.646 3.932 5.666 1.603 8.764 1.702 4.96.157 9.844-.688 14.796-.729 8.661-.07 17-1.099 25.377-4.098 8.411-3.011 17.987-10.266 10.997-20.291Z" clip-rule="evenodd"/>
  <path fill="#000" fill-rule="evenodd" d="M239.695 116.806c.119.125.397.201 0 0ZM87.1467 284.285c1.8812-2.011 9.8841-1.604 10.4889 1.992.6745 4.014-6.4766 10.078-9.0935 11.778-3.368 2.187-7.4788 2.597-6.8816-2.896.4516-4.148 2.8079-8.011 5.4862-10.874Zm6.6092-4.139c.2441 1.112-1.5546.734-2.0498.47-.2334-.506 1.8058-1.586 2.0498-.47Zm-13.8009 7.362c1.5964.151 3.4252-2.55 4.6296-3.47.5323.868-2.9778 5.638-3.3639 6.726-.9645 2.719-1.501 6.155-.1863 8.867 3.8426 7.927 13.6766-3.392 16.1361-7.346 1.7208-2.765 2.9125-6.194.4816-8.904-.8654-.965-2.295-1.233-3.0991-2.15-1.0582-1.207-.2252-2.764-2.3528-2.501-1.468.182-3.2307 1.579-4.6579 2.084-1.7203.609-3.2666 1.24-4.7682 2.369-.3384.254-4.7911 4.138-2.8191 4.325Zm112.816 2.661c-1.003 5.447-6.119 11.033-11.503 11.25-5.361.216-7.097-5.709-6.15-10.431.807-4.027 4.107-11.024 8.815-10.253 3.702.605 9.698 4.766 8.838 9.434Zm-3.414-9.102c-3.399-2.774-8.095-4.057-12.035-1.856-1.292.721-6.448 3.905-4.879 6.059 2.115-1.729 3.942-4.128 6.691-4.704-.462 2.248-3.103 4.27-4.033 6.459-1.088 2.558-1.683 5.485-1.505 8.295.318 5.002 3.494 8.888 8.411 8.2 4.503-.629 8.438-4.269 10.586-8.36 2.868-5.464 1.252-10.43-3.236-14.093Zm-31.567 21.481c-2.42 3.779-6.111 7.335-10.378 8.502-5.524 1.511-3.972-3.304-2.321-6.759 1.46-3.055 3.964-8.31 7.777-8.282 1.294.009 3.704.669 4.838 1.399 2.236 1.439 1.358 3.151.084 5.14Zm-5.155-8.307c.868-1.021 4.714-5.396 5.23-1.985 1.104-1.351.233-2.472-1.181-2.614-1.706-.172-3.57 1.831-4.801 2.826-2.534 2.048-4.484 4.145-6.163 7.016-1.85 3.165-6.57 10.318-2.44 13.459 4.465 3.394 10.963-2.875 13.758-6.108 1.788-2.068 4.156-5.105 3.476-8.138-.835-3.725-4.943-4.116-7.879-4.456Zm-19.049-60.915c-2.499 3.007-7.573 7.387-11.755 6.871-3.814-.471-2.325-4.986-.975-7.171 2.027-3.284 4.744-6.367 8.669-6.546 1.694-.078 3.89-.042 5.202 1.312 1.792 1.848.179 3.946-1.141 5.534Zm-.266-8.352c-2.926-1.067-4.076-1.473-6.92.222-2.284 1.361-4.31 3.286-5.877 5.471-2.346 3.271-4.711 10.627 1.312 11.548 6.606 1.009 22.321-13.29 11.485-17.241Zm9.004 18.77c-1.901 2.048-4.273 3.718-6.981 4.288 1.145-2.696 3.704-8.586 6.737-9.407 1.397-.378 2.99.117 2.875 1.796-.083 1.214-1.881 2.515-2.631 3.323Zm2.447-7.127c-1.574-.832-1.078-1.4-2.909-.747-1.443.513-3.262 1.405-4.464 2.433-.655.561-2.696 2.549-2.447 3.561.453 1.838 1.975-.979 2.375-1.521.686.59-2.82 5.882-3.029 6.753-.778 3.244 1.636 3.587 4.002 2.526 3.19-1.431 12.638-9.746 6.472-13.005Zm46.776 87.282c.236-2.151.57-4.424 2.441-5.632 1.686-1.088 3.432-.931 3.682 1.302.232 2.073-1.694 5.755-3.252 6.886-2.169 1.575-2.587-.389-2.871-2.556Zm2.787 4.893c4.453-2.749 7.26-15.354-.949-11.821-4.665 2.008-2.949 14.226.949 11.821ZM156.3 276.523c.702-1.519 1.505-2.022 2.929-2.687-.949.946-1.919 1.819-2.929 2.687Zm1.027-3.742c-1.008 1.068-3.32 2.695-2.996 4.529.295 1.673 1.507 1.577 2.606 1.055 2.305-1.092 3.588-5.877 5.999-6.325-2.674-1.788-3.299-1.705-5.609.741Zm.354-95.023c.129 5.095.242 10.19.348 15.286.038 1.791-.368 4.343.142 6.059.225.755 2.259 4.031 2.981 4.243 2.526.741 1.624-5.938 1.641-7.582.062-5.549-.015-11.103-.037-16.652-.011-2.859.754-26.835-2.763-26.719-.606.021-2.099 2.762-2.324 3.312-.707 1.726-.447 4.284-.43 6.124.048 5.307.309 10.622.442 15.929Zm21.299 14.852c.198 1.408.094 3.758 1.597 4.488 1.308.635 1.81-.121 2.299-1.301 1.125-2.716.719-6.867.699-9.675-.042-5.565-.636-11.106-1.047-16.65-.18-2.433.195-4.876-.094-7.421-.126-1.117-.252-5.611-2.215-5.401-1.775.189-1.616 4.898-1.712 6.112-.805 10.1-.945 19.765.473 29.848Zm83.783 115.992c-.753 4.057-13.027 18.183-16.118 10.282-1.833-4.687 2.141-9.79 5.241-12.504 1.918-1.679 4.314-3.327 6.929-2.818 2.219.432 4.425 2.463 3.948 5.04Zm-6.339-7.277c-.867.217-8.113 5.584-8.18 5.513-.629-.666 3.942-7.852 4.412-8.48 3.875-5.178 6.446-1.257 8.87 2.812-.516-2.43-1.936-5.96-4.309-6.988-2.995-1.298-5.331 1.906-6.772 4.209-2.038 3.256-3.16 6.791-4.292 10.464-.54 1.752-1.155 3.34-2.069 4.92-.902 1.559-2.48 3.277-2.247 5.249 1.282-.752 1.963-2.224 2.771-3.436.902.385.592 3.416.775 4.188.46 1.939 1.716 3.456 3.659 3.79 3.621.622 7.529-2.912 9.95-5.312 2.552-2.528 5.298-5.995 5.276-9.886-.024-4.067-3.815-8.048-7.844-7.043Zm9.817-65.184c-2.055 3.317-5.659 7.292-9.474 8.062-2.799.566-4.646-1.623-3.522-4.577.95-2.497 4.187-4.074 6.309-5.173 1.683-.871 9.53-2.901 6.687 1.688Zm-1.512-5.424c-4.208-.167-7.602 3.042-10.74 5.603.709-2.942 2.312-6.143 4.569-8.058 3.072-2.606 5.984-.988 9.218.316-.798-2.656-4.379-3.611-6.661-3.236-2.885.475-4.959 3.072-6.417 5.585-1.74 2.997-2.336 6.53-4.384 9.341-.937 1.287-6.744 6.103-5.429 8.071l6.507-7.284c.562 2.87 1.182 6.138 4.656 5.858 2.774-.223 5.939-2.71 7.967-4.611 2.62-2.456 7.777-11.303.714-11.585Zm-58.95 28.317c-1.782.864-5.706 2.039-6.703-.558-1.385-3.608 3.07-9.936 5.191-12.339 1.305-1.48 2.189-2.245 4.008-1.288 1.452.765 3.586 2.937 4.142 4.607 1.197 3.584-3.849 8.225-6.638 9.578Zm4.09-17.327c1.452.345 1.63 2.29-.185 1.543-1.361-.559-1.677-1.985.185-1.543Zm1.823 2.739c-.542-1.744.561-4.48-2.109-4.606-1.513-.071-4.284 1.551-5.605 2.21-1.83.914-3.553 2.309-4.509 4.274-.885 1.819-.253 2.299 1.096.789.165.118-3.052 8.871-3.08 9.748-.126 4.008 2.564 6.648 6.342 5.937 3.472-.653 6.601-3.648 8.512-6.671.967-1.53 1.761-3.281 1.833-5.155.112-2.875-1.705-4.03-2.48-6.526Zm16.655-1.47c-1.465-2.976 1.929-7.984 4.969-6.519 6.328 3.05-3.047 10.42-4.969 6.519Zm5.685-3.885c-.679.029-4.973 1.778-4.341 2.964.867 1.627 4.001-2.31 4.341-2.964Zm-207.579-5.502c-.1697-1.267-2.8632.573-2.8475 1.389.4454-.94 3.2009 1.252 2.8475-1.389Zm147.311-95.774c3.429-.266-.94-18.513-3.439-16.899-2.709 1.749.292 17.143 3.439 16.899Zm6.403-8.521c3.213.485 2.702-7.295.974-8.688-3.189-2.571-4.874 8.099-.974 8.688Z" clip-rule="evenodd"/>
</svg>